<svg viewBox="0 0 138 44" fill="none" xmlns="http://www.w3.org/2000/svg">
<path fill-rule="evenodd" clip-rule="evenodd" d="M43.2731 16.4482C43.2444 16.3575 43.1876 16.2784 43.1109 16.2222C43.0342 16.166 42.9415 16.1358 42.8465 16.1358H38.6722C38.5771 16.1358 38.4845 16.166 38.4078 16.2222C38.3311 16.2784 38.2742 16.3575 38.2456 16.4482L32.9789 33.1513C32.9363 33.2874 32.9605 33.4354 33.0448 33.5507C33.0864 33.6073 33.1407 33.6533 33.2034 33.685C33.266 33.7168 33.3353 33.7333 33.4055 33.7333H36.2794C36.4777 33.7333 36.6523 33.6027 36.7083 33.4124L40.3353 21.1283C40.3353 21.1283 40.4301 20.8216 40.7585 20.8216C41.0925 20.8216 41.1737 21.1407 41.1737 21.1411L42.8565 26.9656H40.5961C40.4986 26.9655 40.4037 26.9974 40.3259 27.0563C40.2482 27.1152 40.1918 27.1979 40.1654 27.2918L39.5167 29.5981C39.4979 29.6646 39.4947 29.7345 39.5075 29.8024C39.5203 29.8704 39.5487 29.9344 39.5904 29.9895C39.6322 30.0446 39.6861 30.0892 39.7481 30.1199C39.81 30.1506 39.8782 30.1665 39.9473 30.1664H43.7972L44.8108 33.419C44.8391 33.5101 44.8959 33.5897 44.9727 33.6462C45.0495 33.7027 45.1424 33.7332 45.2378 33.7332H48.1128C48.1831 33.7331 48.2523 33.7165 48.315 33.6847C48.3776 33.6529 48.4319 33.6068 48.4735 33.5502C48.515 33.4935 48.5426 33.4279 48.5541 33.3586C48.5656 33.2893 48.5606 33.2182 48.5396 33.1512L43.2731 16.4482ZM55.7942 31.1592C55.7848 31.0976 55.7627 31.0387 55.7292 30.9861C55.6958 30.9335 55.6518 30.8885 55.6 30.8539C55.5482 30.8192 55.4897 30.7958 55.4283 30.7851C55.3669 30.7744 55.304 30.7767 55.2435 30.7918C54.777 30.9076 54.3301 30.9716 53.9853 30.9716C53.3312 30.9716 53.0398 30.688 53.0398 30.0522V23.6527H55.6059C55.7246 23.6527 55.8384 23.6056 55.9223 23.5217C56.0062 23.4378 56.0534 23.3241 56.0535 23.2054V21.2093C56.0535 20.9622 55.8533 20.7622 55.6062 20.7622H53.0398V17.6806C53.0398 17.6166 53.0261 17.5534 52.9996 17.4951C52.9731 17.4369 52.9344 17.3851 52.8862 17.3431C52.8379 17.3011 52.7812 17.2699 52.7199 17.2517C52.6585 17.2335 52.594 17.2286 52.5307 17.2375L49.8884 17.6056C49.7814 17.6205 49.6835 17.6735 49.6126 17.7549C49.5417 17.8364 49.5026 17.9407 49.5025 18.0487V20.7621H48.0633C47.9447 20.7621 47.8309 20.8092 47.747 20.893C47.6632 20.9768 47.616 21.0906 47.6159 21.2091V23.2053C47.6159 23.3239 47.6631 23.4377 47.7469 23.5216C47.8308 23.6055 47.9446 23.6526 48.0633 23.6526H49.5025V30.4656C49.5025 32.8054 50.7324 33.9913 53.1579 33.9913C53.8481 33.9913 55.0203 33.8323 55.7868 33.5659C55.8854 33.5317 55.9688 33.4642 56.0228 33.375C56.0767 33.2857 56.0978 33.1805 56.0822 33.0774L55.7942 31.1592ZM60.6857 15.8097H58.0434C57.9846 15.8097 57.9265 15.8213 57.8722 15.8438C57.8179 15.8663 57.7685 15.8993 57.727 15.9408C57.6855 15.9824 57.6525 16.0318 57.63 16.0861C57.6076 16.1404 57.596 16.1986 57.5961 16.2573V33.286C57.5961 33.4046 57.6432 33.5184 57.7271 33.6023C57.811 33.6862 57.9248 33.7333 58.0434 33.7333H60.6857C60.8043 33.7333 60.9181 33.6862 61.002 33.6023C61.0859 33.5184 61.133 33.4046 61.133 33.286V16.257C61.133 16.0097 60.9328 15.8097 60.6857 15.8097ZM69.2527 28.9775V30.5334C68.8147 30.7667 68.0211 31.101 67.0665 31.101C66.2429 31.101 65.9918 30.8499 65.9918 30.0259C65.9918 29.2261 66.1472 28.9773 67.1182 28.9773L69.2527 28.9775ZM67.4799 20.5036C66.1422 20.5036 64.5143 20.7145 63.3328 21.0413C63.2266 21.0705 63.1349 21.1379 63.0754 21.2305C63.0159 21.3232 62.9928 21.4346 63.0104 21.5433L63.3197 23.4615C63.3292 23.5206 63.3505 23.5773 63.3824 23.628C63.4143 23.6788 63.456 23.7226 63.5052 23.7568C63.6043 23.8264 63.7276 23.8526 63.8467 23.829C64.9455 23.6154 66.0799 23.4975 67.0406 23.4975C68.9478 23.4975 69.2527 23.9001 69.2527 25.1924V26.3193H66.4204C63.7134 26.3193 62.5582 27.4358 62.5582 30.0524C62.5582 32.5557 63.8246 33.9915 66.0326 33.9915C67.3097 33.9915 68.5888 33.637 69.6638 32.9889L69.7767 33.4036C69.8025 33.4983 69.8588 33.5819 69.9368 33.6414C70.0148 33.701 70.1102 33.7333 70.2084 33.7333H72.3423C72.4609 33.7333 72.5747 33.6862 72.6586 33.6023C72.7425 33.5184 72.7896 33.4046 72.7896 33.286V25.2444C72.7896 21.7884 71.3506 20.5036 67.4799 20.5036ZM79.4108 25.7051C77.7712 25.2825 77.7712 25.2654 77.7712 24.3659C77.7712 23.7618 77.8312 23.4717 79.182 23.4717C80.1072 23.4717 81.4726 23.6336 82.3494 23.7835C82.4701 23.8041 82.5937 23.7746 82.6917 23.7012C82.7402 23.6651 82.7809 23.6196 82.8114 23.5674C82.8419 23.5151 82.8614 23.4573 82.8689 23.3973L83.118 21.3835C83.1316 21.2739 83.1041 21.163 83.0409 21.0724C82.9776 20.9817 82.8831 20.9177 82.7755 20.8926C81.7615 20.6563 80.3507 20.5035 79.1818 20.5035C75.1183 20.5035 74.2857 22.0372 74.2857 24.3395C74.2857 26.8712 74.7561 27.7219 77.8704 28.4806C79.9204 28.9741 79.9204 29.3407 79.9204 29.9487C79.9204 30.7471 79.8523 31.0233 78.51 31.0233C77.4293 31.0233 76.1786 30.8552 75.0783 30.5618C75.0186 30.5459 74.9563 30.5425 74.8952 30.5518C74.8342 30.5612 74.7758 30.5831 74.7236 30.6162C74.6714 30.6492 74.6267 30.6927 74.5922 30.7439C74.5577 30.7951 74.5341 30.8529 74.523 30.9137L74.1737 32.8244C74.1541 32.9311 74.174 33.0412 74.2295 33.1342C74.2851 33.2273 74.3726 33.297 74.4757 33.3304C75.6757 33.7198 77.3983 33.9913 78.6651 33.9913C82.5995 33.9913 83.4058 32.3443 83.4058 29.871C83.4058 27.1401 82.9209 26.6341 79.4108 25.7051ZM89.6204 25.7051C87.9809 25.2825 87.9809 25.2654 87.9809 24.3659C87.9809 23.7618 88.0408 23.4717 89.3916 23.4717C90.317 23.4717 91.6823 23.6336 92.5592 23.7835C92.6799 23.8041 92.8035 23.7746 92.9015 23.7012C92.95 23.6651 92.9907 23.6196 93.0211 23.5674C93.0516 23.5151 93.0711 23.4573 93.0785 23.3973L93.3276 21.3835C93.3413 21.2739 93.3139 21.1631 93.2507 21.0724C93.1875 20.9818 93.093 20.9177 92.9854 20.8926C91.9711 20.6563 90.5605 20.5035 89.3916 20.5035C85.3283 20.5035 84.4956 22.0372 84.4956 24.3395C84.4956 26.8712 84.9657 27.7219 88.0803 28.4806C90.1304 28.9741 90.1304 29.3407 90.1304 29.9487C90.1304 30.7471 90.0622 31.0233 88.7196 31.0233C87.6389 31.0233 86.3882 30.8552 85.2881 30.5618C85.2284 30.5459 85.1661 30.5425 85.105 30.5519C85.044 30.5613 84.9856 30.5832 84.9335 30.6163C84.8812 30.6492 84.8364 30.6927 84.8018 30.7439C84.7673 30.7951 84.7437 30.8529 84.7327 30.9137L84.3833 32.8244C84.3637 32.9311 84.3836 33.0412 84.4391 33.1343C84.4947 33.2274 84.5822 33.2971 84.6854 33.3304C85.8854 33.7198 87.608 33.9913 88.8747 33.9913C92.8091 33.9913 93.6155 32.3443 93.6155 29.871C93.6155 27.1401 93.1305 26.6341 89.6204 25.7051ZM98.3134 20.7622H95.6711C95.5525 20.7622 95.4388 20.8093 95.3549 20.8932C95.271 20.977 95.2238 21.0907 95.2238 21.2093V33.286C95.2238 33.4046 95.2709 33.5184 95.3548 33.6023C95.4387 33.6862 95.5525 33.7333 95.6711 33.7333H98.3134C98.432 33.7333 98.5458 33.6862 98.6297 33.6023C98.7136 33.5184 98.7607 33.4046 98.7607 33.286V21.209C98.7607 20.9619 98.5605 20.7622 98.3134 20.7622ZM106.947 28.9775V30.5334C106.509 30.7667 105.715 31.101 104.761 31.101C103.937 31.101 103.686 30.8499 103.686 30.0259C103.686 29.2261 103.841 28.9773 104.812 28.9773L106.947 28.9775ZM105.174 20.5036C103.836 20.5036 102.208 20.7145 101.027 21.0413C100.921 21.0705 100.829 21.1379 100.77 21.2305C100.71 21.3232 100.687 21.4346 100.705 21.5433L101.014 23.4615C101.033 23.581 101.1 23.6875 101.199 23.7568C101.299 23.8264 101.422 23.8526 101.541 23.829C102.64 23.6154 103.774 23.4975 104.735 23.4975C106.642 23.4975 106.947 23.9001 106.947 25.1924V26.3193H104.115C101.408 26.3193 100.253 27.4358 100.253 30.0524C100.253 32.5557 101.519 33.9915 103.727 33.9915C105.004 33.9915 106.283 33.637 107.358 32.9889L107.471 33.4036C107.497 33.4983 107.553 33.5819 107.631 33.6414C107.709 33.701 107.805 33.7333 107.903 33.7333H110.037C110.155 33.7333 110.269 33.6862 110.353 33.6023C110.437 33.5184 110.484 33.4046 110.484 33.286V25.2444C110.484 21.7884 109.045 20.5036 105.174 20.5036ZM120.257 20.5036C118.856 20.5036 116.949 20.9865 115.337 21.7428L115.144 21.0835C115.117 20.9907 115.06 20.9093 114.983 20.8513C114.906 20.7934 114.812 20.7621 114.715 20.7621H112.758C112.639 20.7621 112.526 20.8092 112.442 20.893C112.358 20.9768 112.311 21.0906 112.311 21.2091V33.2858C112.311 33.4045 112.358 33.5183 112.442 33.6021C112.526 33.686 112.639 33.7332 112.758 33.7332H115.4C115.519 33.7332 115.633 33.686 115.717 33.6021C115.8 33.5183 115.848 33.4045 115.848 33.2858V24.9219C116.799 24.4376 118.137 23.937 118.938 23.937C119.533 23.937 119.755 24.1583 119.755 24.7532V33.2858C119.755 33.3446 119.766 33.4028 119.789 33.4571C119.811 33.5114 119.844 33.5608 119.886 33.6023C119.927 33.6439 119.977 33.6769 120.031 33.6994C120.085 33.7219 120.143 33.7335 120.202 33.7335H122.844C122.963 33.7335 123.077 33.6863 123.161 33.6024C123.245 33.5185 123.292 33.4048 123.292 33.2861V24.4175C123.292 21.8204 122.27 20.5036 120.257 20.5036ZM98.1714 15.8091H95.5291C95.4104 15.8091 95.2967 15.8563 95.2128 15.9402C95.1289 16.0241 95.0817 16.1378 95.0817 16.2565V18.5926C95.0817 18.7112 95.1289 18.825 95.2128 18.9089C95.2967 18.9928 95.4104 19.0399 95.5291 19.0399H98.1714C98.29 19.0399 98.4038 18.9928 98.4877 18.9089C98.5716 18.825 98.6187 18.7112 98.6187 18.5926V16.2565C98.6187 16.1378 98.5716 16.0241 98.4877 15.9402C98.4038 15.8563 98.29 15.8091 98.1714 15.8091Z" fill="#3F3F3F"/>
<path fill-rule="evenodd" clip-rule="evenodd" d="M32.0801 15.8853C31.9955 15.8209 31.8921 15.7859 31.7858 15.7859C31.7276 15.7859 31.6689 15.7966 31.6131 15.8179C30.5669 16.218 29.5047 16.5218 28.5349 16.7477C28.3372 16.7939 28.1774 16.9408 28.1111 17.1169C27.4046 19.0523 25.6006 20.8949 23.7079 22.8251C23.6319 22.8972 23.5255 22.9924 23.3523 22.9924C23.1795 22.9924 23.0739 22.9001 22.9967 22.8251C21.1042 20.8949 19.3001 19.0589 18.5936 17.1233C18.5273 16.9472 18.3674 16.8002 18.17 16.7541C17.1998 16.528 16.1347 16.2149 15.0898 15.815C15.0344 15.7938 14.9757 15.783 14.9165 15.7829C14.8111 15.7826 14.7085 15.8172 14.6248 15.8814C14.5599 15.931 14.5087 15.9962 14.4758 16.071C14.443 16.1457 14.4296 16.2276 14.4369 16.3089C14.5974 17.9182 15.233 19.4914 16.3806 21.1401C17.4594 22.69 18.8664 24.1246 20.2268 25.5121C22.7333 28.0686 25.1012 30.4832 25.3089 33.2833C25.3179 33.4052 25.3727 33.5191 25.4623 33.6023C25.5518 33.6855 25.6695 33.7317 25.7918 33.7316H28.7365C28.8021 33.7315 28.867 33.7181 28.9273 33.6922C28.9876 33.6663 29.042 33.6284 29.0872 33.5809C29.1324 33.5334 29.1676 33.4772 29.1904 33.4157C29.2133 33.3542 29.2235 33.2887 29.2204 33.2232C29.1276 31.3512 28.4231 29.4765 27.0666 27.4926C26.7801 27.0754 26.4774 26.6695 26.1592 26.2758C26.0299 26.1144 26.0842 25.914 26.1833 25.8129C26.2809 25.7128 26.3793 25.6129 26.478 25.5118C27.8384 24.1244 29.2452 22.6898 30.3242 21.1397C31.4717 19.4909 32.1075 17.927 32.2678 16.318C32.2838 16.1564 32.2104 15.9848 32.0801 15.8853ZM36.3702 10.257C36.313 10.1806 36.2387 10.1184 36.1533 10.0755C36.0679 10.0327 35.9737 10.0102 35.8782 10.0099C35.7787 10.0099 35.6805 10.0349 35.5944 10.0819C31.9849 12.0578 27.8008 13.103 23.494 13.104C19.1874 13.1027 15.0031 12.0578 11.3939 10.0818C11.3068 10.0347 11.2093 10.01 11.1103 10.0099C10.9172 10.0099 10.7334 10.1023 10.6182 10.2565C10.4474 10.4837 10.4421 10.8649 10.7328 11.0918C12.5406 12.4395 14.5334 13.4918 16.6559 14.2112C18.8559 14.9576 21.1562 15.3367 23.4932 15.3377H23.4949C25.832 15.3367 28.1324 14.9576 30.3323 14.2112C32.455 13.4915 34.4475 12.4395 36.2576 11.0901C36.5463 10.8646 36.5408 10.4836 36.3702 10.257ZM20.1922 27.6899C20.1227 27.617 20.0204 27.5426 19.8486 27.5426C19.6287 27.5426 19.4982 27.6945 19.449 27.7698C18.2103 29.6546 17.5706 31.4337 17.4821 33.2214C17.4757 33.3531 17.5243 33.4841 17.6156 33.5806C17.6612 33.6281 17.7159 33.6659 17.7764 33.6917C17.8369 33.7176 17.902 33.731 17.9678 33.7312H20.9077C21.1605 33.7312 21.3735 33.5334 21.3922 33.281C21.4561 32.4196 21.7246 31.5558 22.2128 30.6481C22.3821 30.3343 22.2506 30.0393 22.1531 29.9132C21.6686 29.2831 21.0751 28.6111 20.1922 27.6899ZM23.3551 17.3278C24.2779 17.3278 24.8132 17.2724 25.0013 17.2724C25.229 17.2724 25.4467 17.459 25.4467 17.7203C25.4467 17.7967 25.4286 17.851 25.4108 17.8993C25.2883 18.2265 24.7305 19.4037 23.6921 20.4137C23.5757 20.5269 23.4436 20.5481 23.3527 20.5481H23.3513C23.2608 20.5481 23.1288 20.5268 23.0125 20.4137C21.9738 19.4037 21.4158 18.2265 21.2937 17.8993C21.2757 17.851 21.2576 17.7967 21.2576 17.7203C21.2576 17.459 21.4755 17.2724 21.7032 17.2724C21.8914 17.2724 22.4265 17.3278 23.3492 17.3278H23.3551Z" fill="#3F3F3F"/>
</svg>
