<svg viewBox="0 0 207 44" fill="none" xmlns="http://www.w3.org/2000/svg">
<path d="M48.7742 21.5433C49.9938 20.8714 50.5233 19.9293 50.5233 18.4823V16.4925C50.5233 13.5927 48.7835 12.1831 45.2048 12.1831H37.934C37.8016 12.1832 37.6747 12.2358 37.5811 12.3294C37.4876 12.423 37.435 12.5499 37.435 12.6823V31.3184C37.435 31.4507 37.4876 31.5777 37.5811 31.6713C37.6747 31.7649 37.8016 31.8175 37.934 31.8175H45.7237C49.1954 31.8175 51.1866 30.1311 51.1866 27.1912V25.1437C51.1866 23.3908 50.296 22.0815 48.7742 21.5433ZM41.4967 15.6104H44.7722C46.2571 15.6104 46.4619 16.2559 46.4619 16.9538V18.6552C46.4619 19.7585 45.9479 20.2296 44.7434 20.2296H44.0329C43.9674 20.2295 43.9025 20.2424 43.8419 20.2674C43.7813 20.2925 43.7263 20.3292 43.68 20.3755C43.6336 20.4219 43.5969 20.4769 43.5718 20.5374C43.5467 20.5979 43.5338 20.6628 43.5338 20.7284V23.0704C43.5338 23.2028 43.5863 23.3297 43.68 23.4233C43.7736 23.5169 43.9005 23.5695 44.0329 23.5695H45.3203C46.6022 23.5695 47.1252 24.0675 47.1252 25.2878V26.7297C47.1252 27.9713 46.5895 28.3902 45.0031 28.3902H41.4967V15.6104Z" fill="#3F3F3F"/>
<path d="M10.7868 21.2405C11.2011 21.4929 12.0801 21.7627 13.3031 21.7627C13.897 21.7627 14.4693 21.6978 14.9558 21.5745C14.9826 21.5678 15.0066 21.5528 15.0244 21.5317C15.0422 21.5106 15.053 21.4844 15.0551 21.4569C15.1314 20.5299 15.3876 19.6266 15.8093 18.7975C15.8174 18.7817 15.8221 18.7644 15.8233 18.7467C15.8245 18.729 15.8222 18.7112 15.8164 18.6945C15.8105 18.6777 15.8014 18.6623 15.7895 18.6492C15.7776 18.636 15.7632 18.6254 15.7471 18.618C15.2662 18.3952 14.7694 18.1008 14.3099 17.7672C13.6044 17.2548 13.0065 16.6744 12.5809 16.0894C12.5658 16.0685 12.5449 16.0526 12.5208 16.0434C12.4967 16.0343 12.4705 16.0324 12.4454 16.038C12.4202 16.0435 12.3972 16.0563 12.3793 16.0748C12.3613 16.0932 12.3491 16.1166 12.3442 16.1419C12.188 16.9444 11.9688 17.7812 11.6931 18.6295C11.4122 19.4942 11.0899 20.3159 10.7359 21.0719C10.7221 21.1013 10.7197 21.1348 10.7291 21.1659C10.7385 21.197 10.759 21.2236 10.7868 21.2405ZM16.0646 25.8717C16.0823 25.8504 16.0928 25.8241 16.0948 25.7965C16.0968 25.7689 16.0901 25.7414 16.0757 25.7178C15.5901 24.9241 15.2655 24.0425 15.1204 23.1233C15.1176 23.1058 15.1113 23.089 15.1019 23.0739C15.0925 23.0589 15.0801 23.0459 15.0655 23.0358C15.0509 23.0256 15.0345 23.0185 15.0171 23.0149C14.9997 23.0113 14.9817 23.0113 14.9643 23.0148C14.4465 23.1172 13.8721 23.1713 13.3031 23.1713C12.4307 23.1713 11.6057 23.0531 10.9177 22.8291C10.9084 22.8094 10.8943 22.7923 10.8767 22.7793C10.8592 22.7663 10.8387 22.758 10.8171 22.7549C10.7955 22.7518 10.7735 22.7541 10.753 22.7616C10.7325 22.7692 10.7142 22.7816 10.6998 22.798C10.6853 22.8143 10.6751 22.834 10.6701 22.8552C10.6651 22.8764 10.6655 22.8986 10.6712 22.9197C10.6768 22.9407 10.6876 22.96 10.7026 22.9759C10.7176 22.9918 10.7363 23.0037 10.757 23.0105C11.1024 23.7525 11.4171 24.5587 11.6925 25.4068C11.9736 26.2711 12.196 27.1255 12.3539 27.9453C12.36 27.9773 12.3778 28.0059 12.4038 28.0256C12.4297 28.0453 12.4621 28.0547 12.4946 28.0521C12.9796 28.0122 13.8495 27.7135 14.8373 26.9959C15.3185 26.6465 15.7428 26.2576 16.0646 25.8717ZM23.2617 11.4945C23.2418 11.4493 23.2113 11.4094 23.1728 11.3784C23.1343 11.3473 23.089 11.3258 23.0405 11.3158L16.7344 10.0067C16.6728 9.99397 16.6088 10.0002 16.5508 10.0245C16.4928 10.0488 16.4435 10.0901 16.4094 10.1429C16.3754 10.1959 16.3583 10.2578 16.3602 10.3207C16.3621 10.3836 16.383 10.4444 16.4202 10.4952L17.3677 11.7861C16.827 12.2668 16.2628 12.7204 15.677 13.1451C14.9417 13.6792 14.1981 14.1549 13.4675 14.5585C13.4389 14.5742 13.4172 14.5998 13.4065 14.6306C13.3957 14.6613 13.3967 14.6949 13.4093 14.725C13.5963 15.1731 14.1486 15.9081 15.138 16.627C15.6192 16.9767 16.1202 17.2599 16.5872 17.4464C16.603 17.4529 16.6197 17.4562 16.6361 17.4562C16.6553 17.4561 16.6741 17.452 16.6915 17.444C16.7089 17.4359 16.7243 17.4243 16.7368 17.4098C17.3817 16.656 18.1783 16.0466 19.0745 15.6213L19.394 17.2272C19.4062 17.289 19.437 17.3457 19.4821 17.3896C19.5273 17.4336 19.5847 17.4628 19.6468 17.4734C19.709 17.4839 19.7728 17.4754 19.83 17.4489C19.8871 17.4224 19.9349 17.3791 19.9669 17.3248L23.2451 11.7786C23.2702 11.736 23.2849 11.688 23.2878 11.6386C23.2907 11.5892 23.2817 11.5398 23.2617 11.4945ZM19.4391 28.5777C18.5688 28.2186 17.7772 27.6926 17.1091 27.0293C17.0966 27.0167 17.0816 27.0068 17.0651 27.0002C17.0487 26.9936 17.031 26.9903 17.0133 26.9907C16.9955 26.9911 16.978 26.995 16.9619 27.0023C16.9457 27.0097 16.9311 27.0202 16.9191 27.0333C16.5595 27.42 16.1262 27.8017 15.6658 28.1362C14.9602 28.6488 14.2229 29.0378 13.5348 29.2614C13.5103 29.2693 13.4887 29.2842 13.4726 29.3043C13.4565 29.3244 13.4466 29.3487 13.4442 29.3744C13.4416 29.4 13.4467 29.4258 13.4587 29.4486C13.4707 29.4715 13.4891 29.4902 13.5117 29.5027C14.2266 29.8998 14.9553 30.3671 15.6774 30.8918C16.4245 31.4347 17.1151 32.0027 17.7298 32.5801C17.7537 32.6027 17.7851 32.6155 17.818 32.6161C17.8508 32.6167 17.8827 32.605 17.9074 32.5833C18.2821 32.255 18.8159 31.493 19.1908 30.34C19.3734 29.7773 19.4876 29.2135 19.5207 28.7093C19.5226 28.6816 19.5157 28.654 19.5011 28.6304C19.4864 28.6068 19.4648 28.5884 19.4391 28.5777ZM33.5282 22.7602C33.1136 22.5076 32.2343 22.2379 31.0106 22.2379C30.4161 22.2379 29.8452 22.303 29.3589 22.4262C29.3321 22.4328 29.3081 22.4478 29.2902 22.4689C29.2724 22.49 29.2617 22.5162 29.2596 22.5437C29.1865 23.4592 28.9257 24.3789 28.5057 25.2025C28.4974 25.2183 28.4925 25.2356 28.4912 25.2534C28.4898 25.2711 28.4922 25.289 28.498 25.3058C28.5038 25.3227 28.513 25.3381 28.525 25.3513C28.537 25.3645 28.5515 25.375 28.5678 25.3824C29.048 25.6047 29.5451 25.8989 30.0046 26.2328C30.7102 26.7455 31.3082 27.3254 31.7336 27.9108C31.7488 27.9315 31.7697 27.9473 31.7938 27.9564C31.8178 27.9654 31.844 27.9673 31.8691 27.9617C31.8942 27.9562 31.9171 27.9435 31.9351 27.9252C31.9531 27.9068 31.9654 27.8836 31.9705 27.8585C32.1267 27.0565 32.3459 26.2198 32.6216 25.371C32.9028 24.506 33.2248 23.6842 33.5788 22.9289C33.5927 22.8995 33.5953 22.866 33.5859 22.8348C33.5766 22.8037 33.556 22.7771 33.5282 22.7602ZM28.2501 18.1288C28.2324 18.1501 28.2219 18.1764 28.2199 18.204C28.2179 18.2316 28.2246 18.2591 28.239 18.2827C28.7247 19.0763 29.0493 19.9578 29.1943 20.8768C29.1998 20.9126 29.2196 20.944 29.2491 20.9649C29.2638 20.9751 29.2803 20.9822 29.2978 20.9858C29.3152 20.9894 29.3332 20.9895 29.3507 20.986C29.8679 20.8836 30.4422 20.8294 31.0119 20.8294C31.884 20.8294 32.709 20.9477 33.397 21.1717C33.4103 21.1759 33.424 21.1781 33.4379 21.1782H33.4398C33.5128 21.1818 33.5735 21.1194 33.5735 21.0461C33.5736 21.0173 33.5642 20.9894 33.5469 20.9665C33.2059 20.2313 32.8949 19.4333 32.6222 18.5932C32.3416 17.729 32.119 16.8748 31.9608 16.0549C31.9545 16.023 31.9367 15.9945 31.9108 15.9748C31.8849 15.9551 31.8527 15.9456 31.8203 15.9481C31.3356 15.988 30.4657 16.2865 29.4773 17.0045C28.9962 17.354 28.5719 17.743 28.2501 18.1288ZM24.8759 15.4618C25.7415 15.8178 26.5471 16.3532 27.2056 17.0105C27.2305 17.0351 27.2641 17.0489 27.2991 17.0488H27.3016C27.3194 17.0485 27.3369 17.0446 27.3531 17.0374C27.3693 17.0301 27.3839 17.0197 27.396 17.0067C27.7554 16.6196 28.1886 16.238 28.6491 15.9037C29.355 15.3908 30.0917 15.0016 30.7801 14.7784C30.8044 14.7703 30.8259 14.7553 30.8419 14.7352C30.8579 14.7151 30.8677 14.6908 30.8702 14.6653C30.8727 14.6397 30.8677 14.614 30.8559 14.5912C30.844 14.5684 30.8258 14.5496 30.8035 14.5369C30.0883 14.1402 29.3599 13.6729 28.6375 13.1483C27.891 12.6057 27.2003 12.0375 26.5851 11.4596C26.5612 11.4371 26.5297 11.4242 26.4969 11.4236C26.464 11.4231 26.4321 11.4348 26.4075 11.4565C26.0327 11.7849 25.4989 12.5469 25.1243 13.6997C24.9418 14.2622 24.8276 14.8259 24.7941 15.3303C24.7922 15.358 24.7991 15.3856 24.8138 15.4092C24.8285 15.4328 24.8502 15.4512 24.8759 15.4618ZM29.1767 27.3733C28.6955 27.0236 28.1945 26.7404 27.7278 26.5538C27.7021 26.5436 27.6739 26.5416 27.647 26.5482C27.6202 26.5549 27.5961 26.5697 27.5781 26.5907C26.933 27.3443 26.1364 27.9536 25.2403 28.3791L24.9209 26.7731C24.9087 26.7112 24.878 26.6545 24.8328 26.6105C24.7877 26.5665 24.7302 26.5373 24.6681 26.5267C24.6059 26.5161 24.542 26.5246 24.4848 26.5512C24.4276 26.5778 24.3799 26.6211 24.3479 26.6755L21.0697 32.2219C21.0446 32.2645 21.0299 32.3124 21.027 32.3618C21.0241 32.4112 21.033 32.4606 21.053 32.5058C21.073 32.5511 21.1035 32.5909 21.142 32.622C21.1805 32.6531 21.2259 32.6745 21.2743 32.6845L27.5805 33.9937C27.6019 33.9979 27.6229 34.0002 27.6438 34.0002C27.8147 34.0035 27.9579 33.8618 27.9579 33.6891C27.9579 33.6061 27.9251 33.5303 27.8719 33.4746L26.947 32.2141C27.4877 31.7334 28.0519 31.2797 28.6375 30.8549C29.3735 30.3205 30.1168 29.8451 30.8474 29.4419C30.8758 29.426 30.8975 29.4002 30.9081 29.3695C30.9188 29.3387 30.9178 29.3051 30.9052 29.275C30.7184 28.8272 30.1661 28.0923 29.1767 27.3733Z" fill="#3F3F3F"/>
<path d="M58.2534 17.0575C56.7604 17.0575 54.9441 17.2928 53.6261 17.6573C53.5077 17.69 53.4055 17.7653 53.3392 17.8688C53.2728 17.9722 53.2469 18.0964 53.2665 18.2177L53.6116 20.3578C53.6221 20.4238 53.6459 20.4871 53.6815 20.5438C53.7171 20.6005 53.7637 20.6494 53.8187 20.6876C53.8735 20.726 53.9355 20.7529 54.0009 20.7668C54.0663 20.7807 54.1339 20.7812 54.1996 20.7685C55.4257 20.5295 56.6912 20.398 57.7631 20.398C59.8911 20.398 60.2315 20.8471 60.2315 22.2894V23.5456H57.0712C54.0508 23.5456 52.7621 24.791 52.7621 27.7105C52.7621 30.504 54.1752 32.1061 56.6386 32.1061C58.0637 32.1061 59.4907 31.7104 60.6897 30.9869L60.8161 31.4496C60.8449 31.5552 60.9076 31.6485 60.9946 31.715C61.0816 31.7814 61.188 31.8174 61.2975 31.8174H63.6782C63.8106 31.8174 63.9375 31.7648 64.0311 31.6712C64.1247 31.5777 64.1773 31.4508 64.1773 31.3184V22.3468C64.1775 18.4909 62.5722 17.0575 58.2534 17.0575ZM60.2315 26.5113V28.2475C59.7428 28.5081 58.8577 28.881 57.792 28.881C56.8731 28.881 56.5933 28.6005 56.5933 27.6818C56.5933 26.7893 56.7666 26.5113 57.8501 26.5113H60.2315ZM83.9486 17.0575C82.3582 17.0575 80.1501 17.6277 78.3879 18.4865C77.8486 17.5381 76.9262 17.0575 75.643 17.0575C74.0803 17.0575 71.9519 17.5961 70.1538 18.4403L69.9384 17.7047C69.9081 17.6011 69.8451 17.5102 69.7588 17.4455C69.6724 17.3808 69.5675 17.3458 69.4596 17.3458H67.2762C67.1438 17.3458 67.0169 17.3984 66.9234 17.492C66.8298 17.5855 66.7772 17.7124 66.7772 17.8447V31.3186C66.7772 31.4509 66.8298 31.5778 66.9234 31.6713C67.0169 31.7649 67.1438 31.8175 67.2762 31.8175H70.2244C70.3568 31.8175 70.4837 31.765 70.5773 31.6714C70.6708 31.5778 70.7234 31.4509 70.7234 31.3186V21.9868C71.7858 21.4466 73.279 20.8879 74.1719 20.8879C74.836 20.8879 75.0827 21.1348 75.0827 21.7987V31.3184C75.0827 31.4508 75.1353 31.5777 75.2289 31.6712C75.3225 31.7648 75.4494 31.8174 75.5818 31.8174H78.5298C78.6621 31.8174 78.789 31.7648 78.8826 31.6712C78.9762 31.5777 79.0287 31.4507 79.0287 31.3184V21.9812C80.0921 21.3921 81.6725 20.8879 82.4772 20.8879C83.1413 20.8879 83.388 21.135 83.388 21.799V31.3186C83.388 31.4509 83.4407 31.5778 83.5342 31.6714C83.6278 31.765 83.7548 31.8175 83.8871 31.8175H86.8352C86.9676 31.8175 87.0945 31.765 87.1881 31.6714C87.2816 31.5778 87.3342 31.4509 87.3342 31.3186V21.4243C87.3348 18.5265 86.1953 17.0575 83.9486 17.0575ZM97.9631 17.0575C96.5017 17.0575 95.0249 17.4188 94.0241 17.7936V12.328C94.0241 12.0523 93.8009 11.8288 93.5252 11.8288H90.5772C90.4449 11.8289 90.318 11.8816 90.2245 11.9752C90.131 12.0688 90.0785 12.1957 90.0786 12.328V31.166C90.0786 31.2828 90.1196 31.3959 90.1944 31.4856C90.2692 31.5754 90.3731 31.6361 90.488 31.6572C92.3067 31.9888 94.4554 32.1065 95.7428 32.1065C101.282 32.1065 102.417 29.7499 102.417 26.2115V22.088C102.416 18.7496 100.918 17.0575 97.9631 17.0575ZM95.9152 28.6791C95.1685 28.6791 94.5473 28.6493 94.0238 28.5888V21.2154C94.8349 20.8521 95.9785 20.4847 96.8957 20.4847C98.0141 20.4847 98.4699 20.9239 98.4699 22.0009V26.3263C98.4699 27.8865 98.0748 28.6791 95.9152 28.6791ZM110.55 17.0575C106.411 17.0575 104.222 19.0463 104.222 22.8088V26.3554C104.222 30.1177 106.411 32.1061 110.55 32.1061C114.69 32.1061 116.878 30.1177 116.878 26.3554V22.8088C116.878 19.0458 114.69 17.0575 110.55 17.0575ZM108.169 22.6932C108.169 21.1449 108.881 20.4847 110.55 20.4847C112.22 20.4847 112.932 21.1454 112.932 22.6932V26.4703C112.932 28.0185 112.22 28.6788 110.55 28.6788C108.881 28.6788 108.169 28.0184 108.169 26.4703V22.6932ZM124.871 17.0575C120.731 17.0575 118.543 19.0463 118.543 22.8088V26.3554C118.543 30.1177 120.731 32.1061 124.871 32.1061C129.01 32.1061 131.198 30.1177 131.198 26.3554V22.8088C131.198 19.0458 129.01 17.0575 124.871 17.0575ZM122.489 22.6932C122.489 21.1449 123.201 20.4847 124.871 20.4847C126.54 20.4847 127.252 21.1454 127.252 22.6932V26.4703C127.252 28.0185 126.54 28.6788 124.871 28.6788C123.201 28.6788 122.489 28.0184 122.489 26.4703V22.6932Z" fill="#3F3F3F"/>
</svg>
