<svg viewBox="0 0 207 44" fill="none" xmlns="http://www.w3.org/2000/svg">
<path d="M54.3103 11.7496C58.77 11.7496 60.946 13.9435 60.946 17.4862C60.946 20.1476 59.7411 21.7481 57.2775 22.3595C60.5144 22.899 62.1148 24.6613 62.1148 27.7543C62.1148 31.261 59.7411 33.6527 54.8498 33.6527H45.8045V11.7496H54.3103ZM48.8076 14.6089V21.1367H53.9147C56.756 21.1367 57.9249 19.8419 57.9249 17.7199C57.9249 15.598 56.6661 14.5909 53.9147 14.5909L48.8076 14.6089ZM48.8076 23.8161V30.6316H54.9397C57.817 30.6316 59.1117 29.5886 59.1117 27.3947C59.1117 25.0569 57.8709 23.7981 54.8858 23.7981L48.8076 23.8161ZM67.0062 10.5808C68.0312 10.5088 68.9303 11.2821 69.0022 12.3071V12.5769C69.0022 13.6738 68.1031 14.5729 67.0062 14.5729C65.9092 14.5729 65.0101 13.6738 65.0101 12.5769C64.9381 11.5518 65.7114 10.6527 66.7364 10.5808C66.8263 10.5628 66.9162 10.5628 67.0062 10.5808ZM65.5496 16.9826H68.4268V33.6527H65.5496V16.9826ZM79.3603 30.8474C79.9717 30.8294 80.5652 30.7575 81.1586 30.6136V33.3829C80.5292 33.5628 79.8818 33.6527 79.2344 33.6527C75.6559 33.6527 73.9295 31.5487 73.9295 28.4557V19.6441H71.2321V16.9826H73.9295V13.44H76.7169V16.9826H81.1586V19.6441H76.7169V28.4017C76.7169 29.8583 77.58 30.8474 79.3603 30.8474ZM92.9913 33.9764C90.5636 33.9764 88.6934 32.8794 87.6863 30.7035V33.6347H84.8091V10.0053H87.7043V19.9678C88.7653 17.7739 90.7794 16.641 93.3329 16.641C97.7747 16.641 100.005 20.3994 100.005 25.3087C99.9866 30.0202 97.6668 33.9764 92.9913 33.9764ZM92.5597 19.3024C89.9882 19.3024 87.7043 20.9389 87.7043 24.6433V25.974C87.7043 29.6785 89.8083 31.3149 92.254 31.3149C95.4909 31.3149 97.1633 29.175 97.1633 25.3087C97.1273 21.3165 95.5268 19.3024 92.5597 19.3024ZM102.99 16.9826H105.867V27.071C105.867 30.0741 107.072 31.4048 109.805 31.4048C112.467 31.4048 114.301 29.6425 114.301 26.2618V16.9826H117.178V33.6527H114.301V30.9193C113.258 32.8435 111.226 34.0303 109.032 33.9944C105.202 33.9944 102.99 31.3329 102.99 26.7473V16.9826ZM133.273 33.2211C132.266 33.7606 130.737 33.9764 129.209 33.9764C123.274 33.9764 120.487 30.3798 120.487 25.2547C120.487 20.2195 123.256 16.623 129.209 16.623C130.575 16.587 131.942 16.8568 133.183 17.4502V20.1116C131.996 19.5542 130.701 19.2844 129.388 19.3204C125.055 19.3204 123.292 22.0538 123.292 25.2907C123.292 28.5276 125.091 31.261 129.46 31.261C130.755 31.2969 132.032 31.0991 133.255 30.6675L133.273 33.2211ZM136.546 33.6527V10.0053H139.423V24.7872L146.598 16.9826H150.338L142.498 25.1648L150.662 33.6527H146.76L139.423 25.8482V33.6527H136.546ZM160.157 33.9764C153.917 33.9764 151.184 30.3798 151.184 25.2547C151.184 20.2195 153.989 16.623 159.06 16.623C164.203 16.623 166.253 20.2016 166.253 25.2547V26.5495H154.079C154.474 29.3908 156.309 31.225 160.247 31.225C161.973 31.225 163.7 30.9193 165.318 30.3259V32.9873C163.969 33.7246 161.865 33.9764 160.157 33.9764ZM163.358 24.1218C163.196 21.0288 161.793 19.2485 158.916 19.2485C155.877 19.2305 154.348 21.2086 154.043 24.1038V24.1218H163.358ZM176.269 30.8474C176.881 30.8294 177.474 30.7575 178.068 30.6136V33.3829C177.438 33.5628 176.791 33.6527 176.144 33.6527C172.565 33.6527 170.839 31.5487 170.839 28.4557V19.6441H168.141V16.9826H170.839V13.44H173.644V16.9826H178.086V19.6441H173.644V28.4017C173.626 29.8583 174.489 30.8474 176.269 30.8474Z" fill="#3F3F3F"/>
<path d="M19.3684 26.4955H24.3137L25.5185 19.5182H18.0557L19.3684 26.4955Z" fill="#3F3F3F"/>
<path d="M10.7733 12.379C10.3417 12.379 10 12.7027 10 13.1343C10 13.1703 10 13.2242 10.018 13.2602L13.2369 32.7895C13.3268 33.275 13.7404 33.6527 14.2439 33.6527H29.6732C30.0508 33.6527 30.3745 33.3829 30.4285 33.0233L33.6474 13.2782C33.7193 12.8646 33.4316 12.469 33.018 12.415C32.982 12.415 32.9281 12.397 32.8921 12.397L10.7733 12.379ZM24.3137 26.4955L19.387 26.4955L18.0557 19.5182H25.5185L24.3137 26.4955Z" fill="#3F3F3F"/>
<path d="M32.623 19.5182H25.5198L24.3329 26.4955L19.387 26.4955L13.5613 33.4009C13.7411 33.5628 13.9749 33.6527 14.2266 33.6527L29.6732 33.6527C30.0508 33.6527 30.3745 33.3829 30.4285 33.0233L32.623 19.5182Z" fill="#3F3F3F"/>
</svg>
