<svg viewBox="0 0 190 38" fill="none" xmlns="http://www.w3.org/2000/svg">
<path d="M57.1952 31.5508C55.9287 32.3858 53.9219 32.7542 51.8238 32.7542C45.1579 32.7542 41.3898 28.7406 41.3898 22.3518C41.3898 16.177 45.1578 11.8546 51.7642 11.8546C53.7394 11.8546 55.7147 12.2265 57.1672 13.258V15.9454C55.7147 15.0192 54.1113 14.542 51.7642 14.542C47.0103 14.542 44.1685 17.6996 44.1685 22.3518C44.1685 27.0039 47.1015 30.1019 51.9186 30.1019C53.7465 30.1185 55.5515 29.695 57.1812 28.8669L57.1952 31.5508ZM59.1354 24.7024C59.1354 20.0713 61.8509 16.7067 66.482 16.7067C71.1131 16.7067 73.769 20.0713 73.769 24.7024C73.769 29.3335 71.0815 32.7718 66.482 32.7718C61.8825 32.7718 59.1354 29.3335 59.1354 24.7024ZM61.7281 24.7024C61.7281 27.6355 63.1806 30.2913 66.482 30.2913C69.7834 30.2913 71.1763 27.6355 71.1763 24.7024C71.1763 21.7694 69.7729 19.1767 66.4855 19.1767C63.1981 19.1767 61.7351 21.7694 61.7351 24.7024H61.7281ZM89.9849 32.4525H87.329V23.1306C87.329 20.352 86.2169 19.117 83.6873 19.117C81.2314 19.117 79.5193 20.7519 79.5193 23.8709V32.4525H76.8634V17.0155H79.5193V19.5486C79.9918 18.6719 80.6972 17.9427 81.5577 17.4413C82.4181 16.9398 83.4003 16.6857 84.396 16.7067C87.9465 16.7067 89.9849 19.1626 89.9849 23.4078V32.4525ZM97.3771 17.0155H101.359V19.4714H97.3771V32.4525H94.7844V19.4714H92.2829V17.0155H94.7844V15.3174C94.7844 12.4475 96.3913 10.5003 99.6962 10.5003C100.301 10.497 100.904 10.5797 101.485 10.7459V13.2018C100.936 13.0974 100.378 13.0457 99.819 13.0475C98.1841 13.0475 97.3631 14.0053 97.3631 15.3946L97.3771 17.0155ZM108.355 32.5437C105.822 32.5437 104.219 31.3403 104.219 28.4985V10.5635H106.874V28.1898C106.874 29.5931 107.801 30.0738 108.944 30.0738C109.202 30.0781 109.46 30.0675 109.716 30.0422V32.4209C109.269 32.5168 108.812 32.558 108.355 32.5437ZM111.965 17.0155H114.621V26.3373C114.621 29.116 115.733 30.351 118.263 30.351C120.719 30.351 122.431 28.716 122.431 25.5971V17.0155H125.094V32.4525H122.438V29.9194C121.965 30.7961 121.26 31.5253 120.399 32.0267C119.539 32.5282 118.557 32.7823 117.561 32.7612C114.011 32.7612 111.972 30.3054 111.972 26.0637L111.965 17.0155ZM136.478 32.7612C130.704 32.7612 128.174 29.4283 128.174 24.6919C128.174 20.0292 130.767 16.6962 135.461 16.6962C140.215 16.6962 142.127 20.0011 142.127 24.6919V25.8953H130.861C131.233 28.5196 132.931 30.2176 136.573 30.2176C138.175 30.2162 139.764 29.9336 141.267 29.3826V31.8385C139.997 32.5122 138.054 32.7612 136.478 32.7612ZM130.83 23.6394H139.443C139.289 20.7695 137.991 19.131 135.338 19.131C132.528 19.1135 131.107 20.9344 130.83 23.6218V23.6394ZM158.399 32.4525H155.743V23.1306C155.743 20.352 154.631 19.117 152.101 19.117C149.646 19.117 147.933 20.7519 147.933 23.8709V32.4525H145.278V17.0155H147.933V19.5486C148.406 18.6719 149.111 17.9427 149.972 17.4413C150.832 16.9398 151.814 16.6857 152.81 16.7067C156.361 16.7067 158.399 19.1626 158.399 23.4078V32.4525ZM173.005 32.049C172.078 32.5437 170.657 32.7507 169.237 32.7507C163.742 32.7507 161.167 29.4177 161.167 24.6814C161.167 20.0187 163.728 16.6857 169.237 16.6857C170.502 16.6442 171.759 16.8976 172.91 17.426V19.8819C171.82 19.3685 170.627 19.1151 169.422 19.1416C165.409 19.1416 163.774 21.6747 163.774 24.6673C163.774 27.66 165.44 30.2282 169.482 30.2282C170.676 30.2597 171.865 30.0718 172.991 29.6738L173.005 32.049ZM183.407 32.7612C177.632 32.7612 175.103 29.4283 175.103 24.6919C175.103 20.0292 177.695 16.6962 182.39 16.6962C187.144 16.6962 189.056 20.0011 189.056 24.6919V25.8953H177.787C178.158 28.5196 179.857 30.2176 183.498 30.2176C185.1 30.2162 186.689 29.9336 188.193 29.3826V31.8385C186.926 32.5122 184.982 32.7612 183.407 32.7612ZM177.758 23.6394H186.372C186.217 20.7695 184.919 19.131 182.267 19.131C179.457 19.1135 178.036 20.9344 177.758 23.6218V23.6394Z" fill="#3F3F3F"/>
<path d="M10.7994 27.8775C10.5714 28.2494 10.3153 28.681 10.0978 29.0248C10.0042 29.1829 9.97635 29.3715 10.0203 29.55C10.0643 29.7284 10.1765 29.8825 10.3328 29.9791L14.8938 32.7858C14.973 32.8347 15.0612 32.8674 15.1532 32.8819C15.2452 32.8964 15.3392 32.8924 15.4297 32.8702C15.5201 32.848 15.6053 32.808 15.6801 32.7526C15.755 32.6971 15.818 32.6273 15.8656 32.5472C16.048 32.242 16.2831 31.8456 16.5392 31.421C18.346 28.4389 20.1634 28.8038 23.4403 30.3685L27.9626 32.5192C28.0474 32.5595 28.1394 32.5824 28.2332 32.5866C28.327 32.5907 28.4207 32.576 28.5087 32.5433C28.5967 32.5106 28.6772 32.4605 28.7455 32.3961C28.8139 32.3317 28.8685 32.2543 28.9064 32.1683L31.0781 27.2565C31.1518 27.0879 31.1564 26.8971 31.0908 26.7252C31.0251 26.5532 30.8946 26.4139 30.7272 26.3373C29.773 25.8883 27.8749 24.9936 26.1663 24.1691C20.0196 21.1835 14.7955 21.3764 10.7994 27.8775Z" fill="#3F3F3F"/>
<path d="M31.2496 16.7313C31.4776 16.3594 31.7337 15.9279 31.9512 15.584C32.0448 15.4259 32.0726 15.2373 32.0287 15.0589C31.9847 14.8804 31.8725 14.7263 31.7162 14.6297L27.1552 11.823C27.0754 11.7692 26.9853 11.7325 26.8907 11.715C26.796 11.6975 26.6987 11.6997 26.6049 11.7214C26.5112 11.7431 26.4228 11.7839 26.3455 11.8412C26.2681 11.8985 26.2034 11.9712 26.1553 12.0546C25.9729 12.3598 25.7378 12.7563 25.4817 13.1808C23.6749 16.1629 21.8575 15.7981 18.5807 14.2333L14.0724 12.0932C13.9876 12.0528 13.8956 12.0299 13.8018 12.0257C13.708 12.0216 13.6143 12.0363 13.5263 12.069C13.4383 12.1017 13.3577 12.1518 13.2894 12.2162C13.2211 12.2806 13.1664 12.3581 13.1286 12.444L10.9569 17.3558C10.8831 17.5244 10.8786 17.7152 10.9442 17.8872C11.0098 18.0591 11.1404 18.1984 11.3077 18.275C12.262 18.7241 14.1601 19.6187 15.8687 20.4432C22.0294 23.4254 27.2535 23.2254 31.2496 16.7313Z" fill="#3F3F3F"/>
</svg>
