<svg width="18" height="14" viewBox="0 0 18 14" fill="none" xmlns="http://www.w3.org/2000/svg">
<path d="M8.25 4.95625C8.25 8.812 5.331 12.8455 0.75 13.75L0.012 12.1555C1.67325 11.5293 3.13425 9.349 3.297 7.846C1.42875 7.552 0 5.93575 0 3.98425C0 1.59775 1.938 0.25 3.89925 0.25C6.1605 0.25 8.25 1.97875 8.25 4.95625ZM18 4.95625C18 8.812 15.081 12.8455 10.5 13.75L9.762 12.1555C11.4233 11.5293 12.8842 9.349 13.047 7.846C11.1788 7.552 9.75 5.93575 9.75 3.98425C9.75 1.59775 11.688 0.25 13.6493 0.25C15.9105 0.25 18 1.97875 18 4.95625Z" fill="black"/>
</svg>
