<svg viewBox="0 0 125 16" fill="none" xmlns="http://www.w3.org/2000/svg">
<path fill-rule="evenodd" clip-rule="evenodd" d="M40.2175 9.72351V9.76499C40.2175 13.2095 42.7167 15.5825 46.099 15.5842C48.1367 15.5842 49.6472 14.7858 50.698 13.4843L48.8712 11.8666C47.988 12.6858 47.212 13.0211 46.1405 13.0211C44.7129 13.0211 43.7036 12.2641 43.389 10.8158H51.2217C51.2425 10.522 51.2632 10.2282 51.2632 9.97585C51.2632 6.78364 49.5418 3.86452 45.7827 3.86452C42.5058 3.86452 40.2175 6.51057 40.2175 9.72351ZM45.7827 6.43452C47.1187 6.43452 47.9673 7.40065 48.1557 8.82824H43.3475C43.5981 7.37991 44.4467 6.43452 45.7827 6.43452ZM55.0638 0H51.8716V15.3302H55.0638V0ZM58.9266 0H55.7344V15.3302H58.9266V0ZM63.0849 0H59.725V2.83444H63.0849V0ZM63.0019 15.3302V4.07364H59.808V15.3302H63.0019ZM65.2678 11.0751L63.237 13.3357C64.2394 14.5317 65.7517 15.541 68.0434 15.5497C69.6387 15.5497 70.9868 15.0657 71.8647 14.1843C72.7427 13.3029 73.2474 11.9997 73.2474 10.2576V0.639477H69.929V10.1107C69.929 11.8113 69.1651 12.5459 67.9553 12.5459C66.9269 12.5459 66.1077 11.9997 65.2678 11.0751ZM81.7732 0.630836H78.5395V15.3302H81.7732V0.630836ZM88.6605 0.630836H82.9277V15.3302H88.6605C93.2803 15.3302 96.4725 12.1172 96.4725 7.97964V7.93816C96.4725 3.8023 93.2803 0.630836 88.6605 0.630836ZM86.1614 12.4128V3.54996H88.6605C91.3066 3.54996 93.0919 5.37679 93.0919 7.98137V8.02285C93.0919 10.6274 91.3066 12.4128 88.6605 12.4128H86.1614ZM108.275 0.630836H97.1863V15.3354H108.375V12.4577H100.396V9.36748H107.326V6.48983H100.396V3.50848H108.275V0.630836ZM118.101 0.532322H115.119L108.82 15.3371H112.109L113.453 12.0395H119.675L121.02 15.3371H124.4L118.101 0.532322ZM116.568 4.40721L118.521 9.17391H114.615L116.568 4.40721ZM0 0.61528H14.6976V15.3129H0V0.61528ZM18.3374 0.630835H21.5711V15.3302H18.3374V0.630835ZM22.4318 4.07364H25.624V5.66887C26.3586 4.72349 27.3039 3.86279 28.9216 3.86279C31.3413 3.86279 32.743 5.45802 32.743 8.04185V15.3284H29.5508V9.05119C29.5508 7.53891 28.837 6.7629 27.6185 6.7629C26.4 6.7629 25.624 7.54064 25.624 9.05119V15.3302H22.4318V4.07364ZM34.4644 12.138V6.80438H33.1197V4.07364H34.4644V1.19772H37.6583V4.07537H40.3026V6.80611H37.6583V11.616C37.6583 12.3505 37.9728 12.7083 38.6953 12.7083C39.2455 12.7108 39.7873 12.5734 40.2698 12.3091V14.8704C39.5078 15.3202 38.6344 15.546 37.7499 15.522C35.7882 15.5185 34.4644 14.7425 34.4644 12.138ZM3.19994 5.44936H1.3662V6.12167H3.19994V5.44936ZM3.19994 2.45246H1.3662V3.12477H3.19994V2.45246ZM4.23866 6.01106C4.46098 6.12616 4.70917 6.18211 4.95937 6.17352L4.949 6.17179C5.13351 6.17422 5.31706 6.14499 5.49169 6.08538C5.64619 6.03275 5.7868 5.9459 5.90303 5.83132C6.01757 5.71574 6.10546 5.57653 6.16055 5.42343C6.22389 5.2401 6.25432 5.04701 6.25042 4.85309V2.45418H5.42256V4.81852C5.43696 4.98379 5.39022 5.1486 5.29121 5.28171C5.24491 5.33027 5.18866 5.36823 5.12631 5.39299C5.06395 5.41775 4.99698 5.42873 4.92999 5.42516C4.8081 5.425 4.68857 5.39153 4.58432 5.32837C4.4666 5.25402 4.36009 5.16323 4.26804 5.05876L3.75992 5.62392C3.89445 5.78119 4.05672 5.91241 4.23866 6.01106ZM6.88889 12.5562H1.37729V13.4739H6.88889V12.5562Z" fill="#3F3F3F"/>
</svg>
