<svg viewBox="0 0 207 44" fill="none" xmlns="http://www.w3.org/2000/svg">
<path d="M10.3333 13.3025L20.1755 11.9496V21.447H10.3342L10.3333 13.3025ZM20.1755 22.6624V32.0524L10.3347 30.7016L10.3344 22.6629L20.1755 22.6624ZM21.2638 11.8003L34.36 10V21.447H21.2638V11.8003ZM34.36 22.6624V34.0005L21.2638 32.2015V22.6624H34.36Z" fill="#3F3F3F"/>
<path d="M56.5938 29.0948H54.3186V20.298C54.3186 19.5769 54.3637 18.6964 54.4537 17.6527H54.4156C54.2736 18.2467 54.1483 18.673 54.0395 18.9331L49.9138 29.0948H48.3328L44.1971 19.0092C44.0816 18.7125 43.9592 18.2603 43.831 17.6538H43.793C43.8448 18.1975 43.8702 19.0851 43.8702 20.3173V29.0948H41.7491V15.5015H44.9784L48.6128 24.5545C48.889 25.2495 49.0691 25.7683 49.1522 26.109H49.2002C49.4381 25.3947 49.6306 24.8635 49.7786 24.5159L53.4807 15.5015H56.5945L56.5938 29.0948ZM60.8645 17.3496C60.4984 17.3496 60.1842 17.2332 59.9248 16.9992C59.6643 16.7654 59.5343 16.4679 59.5343 16.1079C59.5343 15.748 59.6643 15.4476 59.9248 15.207C60.1853 14.9673 60.4984 14.8468 60.8645 14.8468C61.2433 14.8468 61.5654 14.9673 61.8286 15.207C62.0919 15.4476 62.2242 15.7468 62.2242 16.1079C62.2242 16.4487 62.0919 16.7413 61.8286 16.9847C61.5643 17.2284 61.2433 17.3496 60.8645 17.3496ZM61.9725 29.0948H59.7368V19.3876H61.9727L61.9725 29.0948ZM71.9697 28.6492C71.1797 29.0977 70.2439 29.322 69.1642 29.322C67.6989 29.322 66.5164 28.8716 65.6166 27.9716C64.7172 27.0715 64.2669 25.904 64.2669 24.4688C64.2669 22.8699 64.7505 21.5859 65.7176 20.6154C66.685 19.6454 67.9778 19.1601 69.5978 19.1601C70.4974 19.1601 71.2912 19.3151 71.9785 19.6252V21.6724C71.2903 21.1672 70.5581 20.914 69.7811 20.914C68.8364 20.914 68.0621 21.2289 67.4581 21.8573C66.8542 22.4859 66.5515 23.3089 66.5515 24.3263C66.5515 25.3313 66.8354 26.1244 67.4042 26.7057C67.9728 27.2872 68.7363 27.5779 69.6939 27.5779C70.4974 27.5779 71.2549 27.2969 71.9685 26.7347L71.9697 28.6492ZM79.9219 21.4828C79.6516 21.2739 79.2631 21.1702 78.7552 21.1702C78.0932 21.1702 77.5403 21.4636 77.0969 22.0517C76.6534 22.6388 76.4314 23.4388 76.4314 24.4496V29.0948H74.1945V19.3876H76.4314V21.3877H76.4694C76.6878 20.7051 77.0235 20.1727 77.4766 19.7906C77.9297 19.4086 78.436 19.217 78.9949 19.217C79.4001 19.217 79.7085 19.2777 79.921 19.3971L79.9219 21.4828ZM85.8986 29.322C84.3756 29.322 83.1598 28.8687 82.2496 27.9618C81.3402 27.0552 80.8851 25.8528 80.8851 24.3553C80.8851 22.7245 81.3588 21.4511 82.3073 20.5347C83.2558 19.6184 84.5322 19.1601 86.1395 19.1601C87.6822 19.1601 88.8833 19.6059 89.7446 20.4971C90.6061 21.3886 91.0359 22.6234 91.0359 24.2031C91.0359 25.7519 90.5719 26.9918 89.6429 27.9233C88.715 28.8562 87.467 29.322 85.8986 29.322ZM86.0044 20.914C85.1304 20.914 84.4393 21.2144 83.9323 21.814C83.4242 22.4146 83.1707 23.2423 83.1707 24.2973C83.1707 25.3147 83.428 26.1158 83.942 26.7C84.4558 27.2843 85.144 27.5767 86.0053 27.5767C86.8866 27.5767 87.5628 27.289 88.0347 26.7145C88.5063 26.1389 88.7433 25.3206 88.7433 24.2588C88.7433 23.1914 88.5075 22.3665 88.0347 21.785C87.5619 21.2046 86.8854 20.914 86.0044 20.914ZM92.7048 28.7916V26.7539C93.5407 27.3796 94.4627 27.6923 95.4708 27.6923C96.821 27.6923 97.4952 27.3006 97.4952 26.517C97.4952 26.2956 97.4376 26.1081 97.3221 25.9529C97.2066 25.7979 97.0509 25.6604 96.8541 25.541C96.6572 25.4217 96.4264 25.3138 96.1602 25.2187C95.8929 25.1233 95.5961 25.0164 95.2683 24.8961C94.8933 24.752 94.5278 24.5841 94.1741 24.3936C93.849 24.2165 93.5799 24.0164 93.3645 23.7922C93.1523 23.5732 92.9869 23.3135 92.8781 23.0287C92.7684 22.7449 92.7145 22.4125 92.7145 22.0335C92.7145 21.5657 92.8271 21.1537 93.0521 20.7966C93.2775 20.4394 93.5788 20.1392 93.9578 19.8966C94.3374 19.6531 94.7672 19.4702 95.2497 19.347C95.7379 19.223 96.2398 19.1609 96.7435 19.1621C97.6558 19.1621 98.472 19.2978 99.1917 19.5692V21.4935C98.4976 21.0257 97.7009 20.7916 96.8013 20.7916C96.5183 20.7916 96.2628 20.8206 96.0349 20.8764C95.8068 20.9332 95.612 21.0123 95.4513 21.1133C95.291 21.2144 95.1657 21.3356 95.0755 21.4781C94.9861 21.618 94.9392 21.7809 94.9405 21.947C94.9405 22.1556 94.9856 22.3328 95.0755 22.4782C95.1657 22.6234 95.2987 22.7514 95.4758 22.8622C95.6521 22.973 95.8646 23.074 96.1122 23.1653C96.3598 23.2568 96.6436 23.357 96.9658 23.4639C97.355 23.6186 97.7362 23.7927 98.108 23.9856C98.4457 24.1625 98.7334 24.3628 98.9713 24.5871C99.2056 24.8061 99.3924 25.0708 99.5204 25.3648C99.6489 25.6584 99.7134 26.0079 99.7134 26.4121C99.7134 26.905 99.5979 27.3341 99.3659 27.7011C99.1349 28.0679 98.8256 28.371 98.441 28.6106C98.0552 28.8512 97.6098 29.0293 97.1058 29.1457C96.6006 29.2633 96.0691 29.3211 95.5102 29.3211C94.4296 29.322 93.4947 29.1457 92.7048 28.7916ZM106.22 29.322C104.697 29.322 103.48 28.8687 102.571 27.9618C101.661 27.0552 101.207 25.8528 101.207 24.3553C101.207 22.7245 101.681 21.4511 102.629 20.5347C103.577 19.6184 104.854 19.1601 106.461 19.1601C108.003 19.1601 109.204 19.6059 110.066 20.4971C110.927 21.3886 111.358 22.6234 111.358 24.2031C111.358 25.7519 110.894 26.9918 109.965 27.9233C109.036 28.8562 107.787 29.322 106.22 29.322ZM106.326 20.914C105.451 20.914 104.76 21.2144 104.252 21.814C103.744 22.4146 103.491 23.2423 103.491 24.2973C103.491 25.3147 103.748 26.1158 104.262 26.7C104.776 27.2843 105.464 27.5767 106.326 27.5767C107.206 27.5767 107.882 27.289 108.355 26.7145C108.828 26.1389 109.063 25.3206 109.063 24.2588C109.063 23.1914 108.828 22.3665 108.355 21.785C107.882 21.2046 107.206 20.914 106.326 20.914ZM119.224 16.5159C118.923 16.3456 118.578 16.26 118.192 16.26C117.106 16.26 116.563 16.8635 116.563 18.0705V19.3882H118.858V21.1133H116.573V29.0948H114.337V21.1133H112.65V19.3882H114.337V17.8145C114.337 16.7905 114.677 15.9838 115.358 15.3928C116.04 14.8015 116.891 14.5061 117.913 14.5061C118.466 14.5061 118.903 14.5659 119.224 14.6862V16.5159ZM125.673 28.9908C125.236 29.2055 124.661 29.3134 123.947 29.3134C122.032 29.3134 121.075 28.4095 121.075 26.6028V21.1142H119.427V19.3894H121.075V17.1425L123.312 16.5171V19.3894H125.674V21.1142H123.312V25.9672C123.312 26.5419 123.417 26.9528 123.63 27.1993C123.842 27.4458 124.196 27.569 124.69 27.569C125.069 27.569 125.397 27.4621 125.673 27.2464V28.9908ZM144.644 29.0948H142.128L140.885 25.6344H135.449L134.253 29.0948H131.747L136.923 15.5015H139.506L144.644 29.0948ZM140.277 23.796L138.36 18.3738C138.302 18.1966 138.24 17.9128 138.177 17.5209H138.139C138.081 17.8811 138.016 18.1658 137.946 18.3738L136.047 23.796H140.277ZM153.59 20.3075L148.259 27.3785H153.57V29.0948H145.125V28.2699L150.572 21.1036H145.646V19.3873H153.59V20.3075ZM164.087 29.0948H161.851V27.5586H161.813C161.164 28.7339 160.155 29.322 158.787 29.322C156.454 29.322 155.287 27.9446 155.287 25.1888V19.3873H157.524V24.9616C157.524 26.7059 158.208 27.5779 159.578 27.5779C160.239 27.5779 160.783 27.3382 161.211 26.8579C161.639 26.3776 161.852 25.749 161.852 24.9713V19.3873H164.089L164.087 29.0948ZM172.734 21.4828C172.464 21.2739 172.075 21.1702 171.568 21.1702C170.906 21.1702 170.353 21.4636 169.909 22.0517C169.466 22.6388 169.244 23.4388 169.244 24.4496V29.0948H167.008V19.3876H169.244V21.3877H169.282C169.5 20.7051 169.836 20.1727 170.289 19.7906C170.742 19.4086 171.248 19.217 171.807 19.217C172.212 19.217 172.521 19.2777 172.732 19.3971L172.734 21.4828ZM182.692 24.8383H175.963C175.989 25.7354 176.27 26.4275 176.807 26.9145C177.343 27.4007 178.081 27.6442 179.019 27.6442C180.073 27.6442 181.041 27.3343 181.921 26.7154V28.4874C181.021 29.0438 179.832 29.322 178.354 29.322C176.901 29.322 175.763 28.8811 174.936 27.9994C174.11 27.1178 173.698 25.8779 173.698 24.2792C173.698 22.7689 174.152 21.5376 175.063 20.5866C175.972 19.6356 177.102 19.1601 178.452 19.1601C179.801 19.1601 180.845 19.5867 181.584 20.4394C182.323 21.2923 182.693 22.4771 182.693 23.9942L182.692 24.8383ZM180.533 23.2838C180.523 22.4936 180.337 21.8793 179.964 21.4405C179.591 21.0016 179.077 20.7821 178.422 20.7821C177.779 20.7821 177.234 21.0132 176.788 21.4742C176.341 21.9352 176.066 22.5389 175.964 23.2847L180.533 23.2838Z" fill="#3F3F3F"/>
</svg>
