<svg viewBox="0 0 167 31" fill="none" xmlns="http://www.w3.org/2000/svg">
<path d="M24.6095 17.3561C26.9676 21.0878 30.8684 23.7878 35.3518 24.1358C26.2587 27.3692 15.9987 21.2997 14.9987 12.7997C14.9583 11.9363 14.9987 9.29969 16.9987 6.79969C18.9988 4.29969 21.4218 3.3758 24.9578 2.66914C22.0755 6.98078 21.9347 12.9591 24.6095 17.3561Z" fill="#37CDAB"/>
<path d="M29.6095 17.3561C31.9676 21.0878 35.8684 23.7878 40.3518 24.1358C31.2587 27.3692 20.9987 21.2997 19.9987 12.7997C19.9583 11.9363 19.9987 9.29969 21.9987 6.79969C23.9988 4.29969 26.4218 3.3758 29.9578 2.66914C27.0755 6.98078 26.9347 12.9591 29.6095 17.3561Z" fill="#B9FF7D"/>
<path d="M34.6095 17.3561C36.9676 21.0878 40.8684 23.7878 45.3518 24.1358C36.2587 27.3692 25.9987 21.2997 24.9987 12.7997C24.9583 11.9363 24.9987 9.29969 26.9987 6.79969C28.9988 4.29969 31.4218 3.3758 34.9578 2.66914C32.0755 6.98078 31.9347 12.9591 34.6095 17.3561Z" fill="#D7F421"/>
<path d="M54 23.6078V4.39216H60.1141V6.90196C60.7229 5.85621 61.5037 5.11111 62.4565 4.66667C63.4358 4.22222 64.4681 4 65.5532 4C66.8502 4 67.9486 4.27451 68.8485 4.82353C69.7484 5.3464 70.4763 6.05229 71.0321 6.94118C71.6144 7.83006 72.0247 8.86275 72.2629 10.0392C72.5275 11.1895 72.6599 12.4052 72.6599 13.6863V23.6078H66.3076V13.5686C66.3076 11.9739 66.0561 10.8105 65.5532 10.0784C65.0504 9.32026 64.2828 8.94118 63.2505 8.94118C62.5888 8.94118 62.0065 9.08497 61.5037 9.37255C61.0272 9.66013 60.6434 10.0131 60.3523 10.4314V23.6078H54Z" fill="#333333"/>
<path d="M96.521 14C96.521 15.4118 96.2961 16.732 95.8461 17.9608C95.3961 19.1634 94.7344 20.2222 93.861 21.1373C92.9876 22.0261 91.9024 22.732 90.6054 23.2549C89.3085 23.7516 87.8263 24 86.1588 24C84.4914 24 83.0092 23.7516 81.7122 23.2549C80.4153 22.732 79.3301 22.0261 78.4567 21.1373C77.5832 20.2222 76.9215 19.1634 76.4716 17.9608C76.0216 16.732 75.7966 15.4118 75.7966 14C75.7966 12.5882 76.0216 11.281 76.4716 10.0784C76.9215 8.84967 77.5832 7.79085 78.4567 6.90196C79.3301 5.98693 80.4153 5.28104 81.7122 4.78431C83.0092 4.26144 84.4914 4 86.1588 4C87.8263 4 89.3085 4.26144 90.6054 4.78431C91.9024 5.28104 92.9876 5.98693 93.861 6.90196C94.7344 7.79085 95.3961 8.84967 95.8461 10.0784C96.2961 11.281 96.521 12.5882 96.521 14ZM90.1687 14C90.1687 13.3203 90.1026 12.6667 89.9702 12.0392C89.8379 11.3856 89.6129 10.8105 89.2953 10.3137C89.0041 9.79085 88.5939 9.38562 88.0645 9.09804C87.5616 8.78431 86.9264 8.62745 86.1588 8.62745C85.3913 8.62745 84.7428 8.78431 84.2134 9.09804C83.7106 9.38562 83.3003 9.79085 82.9827 10.3137C82.6915 10.8105 82.4798 11.3856 82.3475 12.0392C82.2151 12.6667 82.1489 13.3203 82.1489 14C82.1489 14.6797 82.2151 15.3464 82.3475 16C82.4798 16.6275 82.6915 17.2026 82.9827 17.7255C83.3003 18.2222 83.7106 18.6275 84.2134 18.9412C84.7428 19.2288 85.3913 19.3726 86.1588 19.3726C86.9264 19.3726 87.5616 19.2288 88.0645 18.9412C88.5939 18.6275 89.0041 18.2222 89.2953 17.7255C89.6129 17.2026 89.8379 16.6275 89.9702 16C90.1026 15.3464 90.1687 14.6797 90.1687 14Z" fill="#333333"/>
<path d="M104.272 23.6078L97.5223 4.39216H103.914L107.646 17.8824L111.378 4.39216H117.77L111.021 23.6078H104.272Z" fill="#333333"/>
<path d="M128.643 4C131.184 4 133.195 4.7451 134.678 6.23529C136.16 7.69935 136.901 9.73856 136.901 12.3529C136.901 13.3464 136.782 14.4052 136.544 15.5294H125.268C125.321 16.7059 125.718 17.6601 126.459 18.3922C127.227 19.098 128.392 19.451 129.953 19.451C130.906 19.451 131.899 19.3725 132.931 19.2157C133.989 19.0327 134.903 18.7712 135.67 18.4314L136.464 22.4706C135.458 22.9673 134.32 23.3464 133.05 23.6078C131.806 23.8693 130.509 24 129.159 24C127.465 24 125.97 23.7647 124.673 23.2941C123.376 22.7974 122.291 22.1176 121.417 21.2549C120.544 20.3922 119.882 19.3595 119.432 18.1569C118.982 16.9542 118.757 15.6209 118.757 14.1569C118.757 12.5882 118.982 11.1765 119.432 9.92157C119.909 8.66667 120.57 7.60784 121.417 6.7451C122.291 5.85621 123.336 5.17647 124.554 4.70588C125.771 4.23529 127.134 4 128.643 4ZM128.444 8C127.439 8 126.658 8.3268 126.102 8.98039C125.573 9.60784 125.308 10.4837 125.308 11.6078H130.946C130.999 11.3987 131.025 11.1765 131.025 10.9412C131.025 10.1046 130.8 9.41176 130.35 8.86274C129.9 8.28758 129.265 8 128.444 8Z" fill="#333333"/>
<path d="M138.315 23.6078L145.263 13.8824L138.554 4.39216H145.065L148.638 9.68627L152.251 4.39216H158.762L152.012 13.8824L159 23.6078H152.409L148.638 18.0784L144.906 23.6078H138.315Z" fill="#333333"/>
</svg>
