<svg viewBox="0 0 176 44" fill="none" xmlns="http://www.w3.org/2000/svg">
<path d="M38.1105 18.7384C37.5013 20.457 33.6641 22.2519 24.2381 20.1204L25.4649 25.6874C34.8903 27.4002 40.4771 25.9912 43.6684 22.6411C46.0317 20.1581 46.4949 16.9465 44.5527 14.4887C42.4985 11.8871 37.9481 10.0005 32.2019 10.0005C23.9826 10.0005 18.1253 12.382 14.8726 21.3186L10.5 33.3333H18.1498L22.501 21.1818C24.2862 16.1843 28.0379 15.3569 32.2019 15.3569C36.5688 15.3569 38.6764 17.1546 38.1105 18.7384ZM113.855 24.0113L113.559 23.8842C115.271 23.2018 117.129 22.8324 118.975 22.8324C120.095 22.8324 122.587 23.0224 123.637 23.6232C123.893 23.7666 124.127 23.9929 124.001 24.2737C123.537 25.318 116.714 25.2596 113.855 24.0113ZM127.829 21.2019C126.021 20.2352 123.039 19.4647 120.124 19.3458C114.077 19.0973 107.182 21.1597 105.809 26.0355C105.015 28.8401 107.733 32.6281 114.81 33.7027C118.352 34.2463 123.978 34.109 128.027 32.7707L129.539 28.6078C121.328 31.4294 110.595 30.6102 110.954 26.3835C114.927 28.9328 120.724 28.6906 125.016 27.9879C132.452 26.7743 132.343 23.6139 127.829 21.2019ZM140.364 24.0113L140.071 23.8842C141.781 23.2018 143.641 22.8324 145.484 22.8324C146.608 22.8324 149.095 23.0224 150.147 23.6232C150.402 23.7666 150.635 23.9929 150.509 24.2737C150.047 25.318 143.225 25.2596 140.364 24.0113ZM154.338 21.2019C152.532 20.2352 149.549 19.4647 146.633 19.3458C140.589 19.0973 133.694 21.1597 132.318 26.0355C131.526 28.8401 134.246 32.6281 141.32 33.7027C144.86 34.2463 150.49 34.109 154.537 32.7707L156.052 28.6078C147.839 31.4294 137.108 30.6102 137.466 26.3835C141.44 28.9328 147.236 28.6906 151.527 27.9879C158.96 26.7743 158.855 23.6139 154.338 21.2019ZM159.921 24.7807L156.887 33.3363H163.891L166.225 26.7523C166.799 25.0826 167.285 23.8333 169.328 23.8333H174.248L175.628 19.8917H166.564C163.532 19.8914 161.088 21.3948 159.921 24.7807ZM42.6064 33.3363H49.8577L54.758 19.8914H47.5076L42.6064 33.3363ZM89.6544 26.1016C90.329 24.2519 92.367 23.3956 94.152 23.3956C95.9213 23.3956 97.6152 24.4383 96.9595 26.2392L94.3702 33.336H101.375L104.001 26.1269C105.364 22.3835 102.413 19.2828 95.7991 19.2828C88.4372 19.2828 84.2649 21.6882 82.6566 26.0942L80.0183 33.3366H87.0177L89.6544 26.1016ZM68.0532 23.5324C70.8828 23.6519 73.1632 25.0749 72.7569 26.9252C72.3672 28.7085 69.6089 29.9227 66.7471 29.7999C63.9167 29.6824 61.6387 28.253 62.0414 26.4038C62.4347 24.6243 65.1908 23.4077 68.0532 23.5324ZM69.0397 19.3524C61.7461 19.0431 55.2476 22.1608 54.3737 26.1479C53.5119 30.071 58.4386 33.6694 65.7606 33.9788C73.0512 34.2892 79.5523 31.172 80.4276 27.1839C81.287 23.2616 76.36 19.6596 69.0397 19.3524Z" fill="#3F3F3F"/>
</svg>
