<svg viewBox="0 0 93 20" fill="none" xmlns="http://www.w3.org/2000/svg">
<path fill-rule="evenodd" clip-rule="evenodd" d="M31.811 6.19825C31.4471 5.86366 31.0247 5.61063 30.5421 5.43957C30.0594 5.26851 29.586 5.18236 29.123 5.18236C28.7365 5.18236 28.3543 5.23129 27.9758 5.32874C27.5973 5.42577 27.2577 5.57968 26.9561 5.78964C26.6551 5.99959 26.4056 6.27499 26.2263 6.59516C26.041 6.92222 25.9482 7.31536 25.9482 7.77458C25.9482 8.14807 26.008 8.46551 26.128 8.72607C26.2407 8.97709 26.402 9.20326 26.6027 9.39149C26.8016 9.57591 27.0284 9.72766 27.2748 9.84109C27.5258 9.9582 27.7826 10.059 28.0452 10.1447C28.3154 10.2305 28.5567 10.3104 28.7696 10.384C28.9816 10.4584 29.1594 10.54 29.3024 10.6295C29.445 10.719 29.5555 10.8181 29.6328 10.9268C29.7098 11.0364 29.7483 11.1686 29.7483 11.3242C29.7483 11.4873 29.7173 11.6278 29.6558 11.7441C29.5939 11.8612 29.5107 11.9544 29.4066 12.0243C29.302 12.0945 29.1807 12.1456 29.0419 12.1761C28.9011 12.2076 28.7574 12.2233 28.6132 12.2229C28.2886 12.2229 27.9624 12.1393 27.6341 11.972C27.3053 11.8047 27.041 11.5964 26.8403 11.3476L25.5429 12.6784C25.9055 13.0598 26.3614 13.3539 26.9097 13.56C27.4584 13.7662 28.026 13.8695 28.6132 13.8695C29.0147 13.8695 29.4049 13.8152 29.783 13.706C30.1477 13.6039 30.4897 13.4336 30.7909 13.2041C31.0871 12.9753 31.327 12.6817 31.4923 12.3459C31.6659 11.9996 31.7529 11.5889 31.7529 11.1138C31.7529 10.7014 31.6717 10.3568 31.5094 10.0807C31.3472 9.8047 31.1427 9.57258 30.8955 9.38563C30.6445 9.1968 30.3674 9.04549 30.0728 8.93645C29.7717 8.82352 29.4818 8.72022 29.2037 8.62695C29.0285 8.57101 28.8547 8.51062 28.6826 8.44585C28.5433 8.39502 28.4094 8.33058 28.2828 8.25346C28.1799 8.19239 28.0926 8.10837 28.0276 8.00796C27.9699 7.91469 27.9411 7.79801 27.9411 7.6579C27.9411 7.49437 27.9774 7.36011 28.0511 7.25514C28.1242 7.14974 28.215 7.06442 28.3233 6.99792C28.4312 6.93184 28.5534 6.88709 28.6884 6.86409C28.8235 6.84066 28.9561 6.82895 29.0879 6.82895C29.343 6.82895 29.6073 6.89294 29.8817 7.02134C30.1419 7.13907 30.3702 7.31732 30.5475 7.54121L31.811 6.19825ZM34.22 13.6596H36.2129V5.39231H34.22V13.6596ZM45.0063 7.09746V5.39273H38.3915V7.09704H40.7085V13.6592H42.6901V7.09746H45.0063ZM52.9081 13.6596V11.9544H49.0967V10.2384H52.5028V8.63866H49.0967V7.07404H52.6998V5.39273H47.1849V13.6592L52.9081 13.6596ZM62.3623 12.5149L60.9834 11.207C60.7987 11.4622 60.5566 11.6702 60.2765 11.8143C59.9829 11.9703 59.6396 12.0481 59.2456 12.0481C58.9231 12.0517 58.6035 11.988 58.3071 11.8612C58.0279 11.7416 57.7771 11.5646 57.571 11.3417C57.36 11.1091 57.1968 10.8373 57.0908 10.5416C56.9746 10.2305 56.9168 9.88793 56.9168 9.51445C56.9168 9.14849 56.9746 8.81181 57.0908 8.50441C57.1994 8.20862 57.3646 7.93685 57.5772 7.70432C57.7872 7.47775 58.0416 7.29692 58.3246 7.17316C58.6261 7.04247 58.9517 6.97691 59.2803 6.98077C59.5969 6.98077 59.906 7.04309 60.2071 7.16731C60.5082 7.29194 60.7516 7.48266 60.9369 7.73945L62.2807 6.3852C61.9336 5.98788 61.4798 5.68675 60.9194 5.48014C60.3598 5.27395 59.7901 5.17065 59.2104 5.17065C58.5852 5.17065 58.0017 5.27186 57.4614 5.47429C56.9368 5.66691 56.4561 5.96271 56.0477 6.34422C55.6462 6.72188 55.3313 7.17902 55.1038 7.71603C54.8759 8.25305 54.7617 8.8528 54.7617 9.51445C54.7617 10.1606 54.8738 10.752 55.0979 11.289C55.3217 11.826 55.6308 12.2874 56.0247 12.6725C56.4247 13.0619 56.8997 13.3659 57.4208 13.5659C57.9574 13.7759 58.5425 13.8813 59.1762 13.8813C59.8713 13.8813 60.4852 13.7583 61.0181 13.5132C61.5509 13.2681 61.9988 12.9352 62.3623 12.5149ZM72.1523 7.69888C71.9282 7.16563 71.617 6.71185 71.2197 6.33836C70.8215 5.96488 70.3485 5.67671 69.8002 5.47429C69.2519 5.27186 68.6571 5.17065 68.016 5.17065C67.3748 5.17065 66.7822 5.27186 66.2376 5.47429C65.6927 5.67671 65.2217 5.96488 64.824 6.33836C64.4267 6.71185 64.1151 7.16563 63.8913 7.69888C63.6672 8.23172 63.5555 8.82938 63.5555 9.49061C63.5555 10.1447 63.6672 10.7424 63.8913 11.2832C64.1151 11.8244 64.4267 12.2869 64.824 12.6725C65.2298 13.0631 65.7107 13.367 66.2376 13.5659C66.7822 13.7759 67.3752 13.8813 68.016 13.8813C68.6571 13.8813 69.2519 13.7759 69.8002 13.5659C70.3481 13.3555 70.8215 13.0582 71.2197 12.6725C71.617 12.2874 71.9282 11.8244 72.1523 11.2832C72.3761 10.7424 72.4882 10.1447 72.4882 9.49061C72.4882 8.82938 72.3761 8.23172 72.1523 7.69888ZM70.1942 10.5245C70.0874 10.8245 69.9221 11.1003 69.7077 11.3359C69.4993 11.5615 69.2469 11.7422 68.9662 11.867C68.6801 11.9954 68.364 12.0594 68.016 12.0594C67.6688 12.0594 67.3518 11.9954 67.0662 11.867C66.7865 11.7432 66.5357 11.5623 66.3301 11.3359C66.1187 11.0991 65.9554 10.8235 65.8491 10.5245C65.7304 10.1929 65.6716 9.8428 65.6755 9.49061C65.6755 9.13302 65.7316 8.79801 65.8437 8.48684C65.9469 8.18988 66.1107 7.91758 66.3246 7.68717C66.5329 7.46509 66.7805 7.28985 67.0662 7.16145C67.3518 7.03305 67.6684 6.96906 68.0156 6.96906C68.3635 6.96906 68.6822 7.03305 68.9721 7.16145C69.2527 7.28374 69.505 7.46273 69.7132 7.68717C69.9181 7.90884 70.0783 8.17567 70.1942 8.48684C70.31 8.79801 70.3681 9.13302 70.3681 9.49061C70.3681 9.86451 70.31 10.2087 70.1942 10.5245ZM81.3744 13.6592L79.231 10.1213C79.7642 9.9582 80.1812 9.68551 80.4823 9.30407C80.7835 8.92306 80.934 8.45171 80.934 7.89127C80.934 7.41657 80.8454 7.01967 80.6676 6.70014C80.497 6.38876 80.2524 6.12417 79.9553 5.92975C79.6476 5.73095 79.306 5.59046 78.9474 5.51527C78.5686 5.43299 78.182 5.3919 77.7943 5.39273H74.6663V13.6592H76.6011V10.3785H77.2766L79.0574 13.6592H81.3744ZM78.8424 8.44C78.7529 8.57258 78.6387 8.67337 78.4986 8.74364C78.3585 8.8139 78.2038 8.86242 78.0331 8.8896C77.8676 8.91647 77.7002 8.93017 77.5325 8.93059H76.5898V7.00378H77.6492C77.7964 7.00378 77.9495 7.01549 78.1088 7.03891C78.2678 7.06233 78.4116 7.10708 78.5396 7.17274C78.6676 7.23966 78.7726 7.33293 78.8541 7.45338C78.9353 7.57425 78.9763 7.73192 78.9763 7.92599C78.9763 8.13636 78.9311 8.30742 78.8424 8.44ZM89.1716 13.6596V11.9544H85.3598V10.2384H88.7659V8.63866H85.3598V7.07404H88.9633V5.39273H83.4484V13.6592L89.1716 13.6596Z" fill="#3F3F3F"/>
<path fill-rule="evenodd" clip-rule="evenodd" d="M9.45788 14.5897C10.2345 14.4885 10.9844 14.251 11.6641 13.8704C13.3429 12.9289 14.3123 11.3108 14.3947 9.31369L14.4018 9.14096H16.7251C16.5822 7.98631 16.1499 6.88647 15.4683 5.94355L13.0915 7.48098C13.8151 8.62318 13.9079 9.88918 13.3592 11.1539C12.7084 12.652 11.1756 13.9645 9.45788 14.5897Z" fill="#3F3F3F"/>
<path fill-rule="evenodd" clip-rule="evenodd" d="M16.761 9.50148H14.7434C14.6075 11.5216 13.5556 13.2225 11.8388 14.1853C10.8589 14.7344 9.74342 15.008 8.60456 15.008C7.70276 15.0056 6.80893 14.839 5.96675 14.5165C6.99896 15.1657 8.15914 15.5207 9.36115 15.5245H9.37955C11.5498 15.5245 13.4979 14.3672 14.5937 12.4266L14.6865 12.2627L16.0366 13.1251C16.5267 12.1565 16.7816 11.086 16.7806 10.0004C16.7806 9.8323 16.7723 9.66626 16.761 9.50148Z" fill="#3F3F3F"/>
<path fill-rule="evenodd" clip-rule="evenodd" d="M9.37844 15.8846H9.3592C7.19692 15.8783 5.16513 14.7997 3.71929 12.9423C4.818 15.2853 7.18479 16.9109 9.92256 16.9109C12.4604 16.9109 14.6787 15.5132 15.8644 13.4425L14.8088 12.7683C13.6327 14.7244 11.6177 15.8846 9.37844 15.8846Z" fill="#3F3F3F"/>
<path fill-rule="evenodd" clip-rule="evenodd" d="M9.92306 0C4.4425 0 0 4.47721 0 10C0 15.5228 4.4425 20 9.92306 20C15.4032 20 19.8457 15.5232 19.8457 10C19.8457 4.47679 15.4036 0 9.92306 0ZM9.92306 17.2714C5.93811 17.2714 2.70766 14.0159 2.70766 10C2.70766 5.98453 5.93811 2.72898 9.92306 2.72898C13.9076 2.72898 17.1376 5.98453 17.1376 10C17.1376 14.0159 13.9076 17.2714 9.92306 17.2714Z" fill="#3F3F3F"/>
<path fill-rule="evenodd" clip-rule="evenodd" d="M90.7053 6.5479C90.7687 6.69382 90.8734 6.81803 91.0065 6.90527C91.1395 6.99251 91.2952 7.03899 91.4543 7.03899C91.6134 7.03899 91.7691 6.99251 91.9022 6.90527C92.0352 6.81803 92.1399 6.69382 92.2034 6.5479C92.2452 6.44961 92.2673 6.34421 92.2673 6.23171C92.2679 6.12452 92.2471 6.0183 92.2061 5.91926C92.1651 5.82023 92.1047 5.73037 92.0285 5.65496C91.9538 5.58133 91.866 5.52219 91.7697 5.48056C91.6702 5.43736 91.5628 5.41543 91.4543 5.41615C91.3422 5.41615 91.2368 5.43748 91.1386 5.48056C90.9436 5.56348 90.7884 5.7186 90.7053 5.91343C90.6626 6.01297 90.6413 6.1192 90.6413 6.23171C90.6413 6.34421 90.6622 6.44961 90.7053 6.5479ZM90.8232 5.96237C90.8921 5.79763 91.0225 5.66622 91.1867 5.59599C91.2699 5.55961 91.359 5.54162 91.4543 5.54162C91.5894 5.5411 91.7215 5.5808 91.8339 5.65566C91.9463 5.73051 92.0339 5.83714 92.0854 5.96195C92.121 6.04601 92.1385 6.13593 92.1385 6.23171C92.1385 6.32498 92.121 6.41364 92.0854 6.49771C92.0508 6.57979 92.0012 6.65468 91.939 6.71853C91.8762 6.78359 91.8008 6.83516 91.7174 6.87011C91.634 6.90505 91.5443 6.92264 91.4539 6.9218C91.3636 6.92246 91.274 6.90479 91.1907 6.86985C91.1074 6.83492 91.032 6.78344 90.9692 6.71853C90.9072 6.65467 90.8577 6.57978 90.8232 6.49771C90.7872 6.41366 90.7689 6.32313 90.7693 6.23171C90.7693 6.13593 90.7873 6.04643 90.8232 5.96237ZM91.1369 6.688H91.3008V6.30323H91.4184L91.6325 6.688H91.832L91.5861 6.28566C91.6449 6.27441 91.6986 6.24484 91.7396 6.20118C91.7772 6.15935 91.7969 6.10498 91.7969 6.03765C91.7982 5.99399 91.7881 5.95074 91.7676 5.91218C91.7488 5.879 91.7226 5.85065 91.691 5.82937C91.6579 5.80736 91.6211 5.7915 91.5823 5.78252C91.5414 5.77301 91.4996 5.76824 91.4577 5.7683H91.1369V6.688ZM91.3008 6.17065V5.90841H91.4506C91.4932 5.90841 91.5342 5.91678 91.5735 5.93351C91.6128 5.95024 91.6321 5.9837 91.6321 6.03388C91.6321 6.08909 91.6112 6.1259 91.5681 6.14346C91.5252 6.16158 91.4791 6.17083 91.4326 6.17065H91.3008Z" fill="#3F3F3F"/>
</svg>
