<svg viewBox="0 0 134 44" fill="none" xmlns="http://www.w3.org/2000/svg">
<path d="M37.6871 24.9192C39.2414 25.049 40.2767 25.5681 40.2767 27.2537C40.2767 28.9393 38.7872 29.9127 36.7168 29.9127C35.422 29.9776 34.1273 29.5882 33.1554 28.6798L33.9975 27.8377C34.7098 28.55 35.6801 28.9393 36.7168 28.8744C38.1398 28.8744 39.0468 28.3553 39.0468 27.3186C39.0468 26.5399 38.659 26.0857 37.6222 26.0208L36.1977 25.891C34.5151 25.7613 33.6097 24.9841 33.6097 23.5565C33.6097 22.0007 34.9044 21.0274 36.7817 21.0274C37.0563 21.0123 37.331 21.0198 37.6041 21.0515C37.8773 21.0832 38.1489 21.1375 38.413 21.2145C38.9424 21.3691 39.4416 21.613 39.8888 21.9358L39.0468 22.7794C38.3994 22.2603 37.5573 22.0007 36.7168 22.0656C35.422 22.0656 34.7746 22.5847 34.7746 23.4916C34.7746 24.2703 35.1625 24.7245 36.2626 24.7894L37.6871 24.9192ZM47.9155 20.9625C50.2455 20.9625 51.4105 22.0007 51.4753 23.881V29.7829H50.1806V28.9393C49.5332 29.5882 48.5629 29.9127 47.6559 29.8478C46.4261 29.8478 45.7138 29.6531 45.1962 29.0691C44.7435 28.6149 44.5488 27.9675 44.5488 27.3186C44.5488 25.7613 45.584 24.7894 47.5262 24.7894H50.1157V23.9459C50.1157 22.7145 49.5332 22.0656 47.9155 22.0656C47.7057 22.0384 47.493 22.0399 47.2847 22.0716C47.0765 22.1018 46.8727 22.1607 46.6796 22.2452C46.4864 22.3312 46.3053 22.4413 46.1424 22.5757C45.9794 22.71 45.836 22.8654 45.7138 23.0389L44.8717 22.1954C45.6489 21.222 46.4909 20.9625 47.9155 20.9625ZM50.1157 26.7346V25.7613H47.6559C46.3612 25.7613 45.7138 26.2804 45.7138 27.3186C45.7138 28.3553 46.3612 28.8096 47.7208 28.8096C47.8929 28.8292 48.0679 28.8307 48.2399 28.8156C48.4135 28.799 48.584 28.7658 48.7515 28.716C48.9175 28.6662 49.079 28.5998 49.2314 28.5168C49.3853 28.4353 49.5287 28.3372 49.663 28.2256C50.0508 27.8377 50.1806 27.2537 50.1157 26.7346ZM56.3949 22.1305C55.6177 22.0656 54.8405 22.4549 54.3878 23.1038C53.9351 23.8161 53.7404 24.5948 53.8053 25.4383C53.7404 26.2804 53.9351 27.0591 54.3878 27.7728C54.8405 28.4202 55.6177 28.8096 56.3949 28.7447C57.172 28.7447 57.9477 28.4202 58.4019 27.7728L59.2425 28.6149C58.5302 29.4585 57.495 29.9776 56.3949 29.9127C54.258 29.9127 52.5755 28.4202 52.5755 25.4383C52.5755 22.4549 54.1932 20.9625 56.3949 20.9625C56.665 20.9534 56.9351 20.9745 57.2007 21.0274C57.4663 21.0787 57.7259 21.1617 57.9718 21.2748C58.4665 21.4997 58.9016 21.8371 59.2425 22.2603L58.4019 23.1038C57.9477 22.4549 57.172 22.1305 56.3949 22.1305ZM67.2691 21.0923L64.162 24.2054L67.7867 29.7829H66.2339L63.3214 25.049L61.7671 26.6048V29.7829H60.4723V17.2019H61.7671V24.9192L65.7163 21.0923H67.2691ZM73.2253 20.9625C73.4819 20.9459 73.7414 20.9579 73.9965 20.9972C74.25 21.0379 74.5005 21.1058 74.7404 21.2009C74.9804 21.296 75.2082 21.4167 75.4225 21.5631C75.6353 21.7079 75.8315 21.877 76.008 22.0656C76.8501 22.974 77.0448 23.9459 77.0448 25.5681C77.0448 27.1888 76.8501 28.2256 76.008 29.0691C75.2958 29.8478 74.2606 30.2371 73.2253 30.1722C72.9688 30.1753 72.7138 30.1526 72.4618 30.1058C72.2098 30.0606 71.9623 29.9896 71.7253 29.8946C71.4869 29.801 71.2591 29.6833 71.0433 29.5445C70.8275 29.4056 70.6268 29.2472 70.4411 29.0691C69.6006 28.2256 69.4059 27.1888 69.4059 25.5681C69.4059 24.0108 69.6006 22.9092 70.4411 22.0656C71.1534 21.2869 72.1886 20.9625 73.2253 20.9625ZM74.8431 25.5681C74.8431 24.6597 74.7782 23.8161 74.3255 23.3619C73.743 22.8443 72.836 22.8443 72.2535 23.3619C71.8008 23.8161 71.7359 24.6597 71.7359 25.5681C71.7359 26.4751 71.8008 27.3186 72.2535 27.7728C72.836 28.2904 73.743 28.2904 74.3255 27.7728C74.7782 27.3186 74.8431 26.5399 74.8431 25.5681ZM85.5241 21.0274L82.2223 30.1073H80.4748L77.1081 21.0274H79.5045L81.3169 26.6048L83.1293 21.0274H85.5241ZM89.3436 20.9625C91.8682 20.9625 93.2912 22.7794 93.2264 25.2437V26.2804H87.5946V26.5399C87.6202 26.7844 87.6896 27.0213 87.8028 27.2401C87.9145 27.4574 88.0669 27.6521 88.2525 27.8136C88.4366 27.975 88.6509 28.1003 88.8818 28.1818C89.1127 28.2633 89.3571 28.301 89.6016 28.2904C90.3788 28.3553 91.1559 28.0309 91.6735 27.5133L93.0332 28.8096C92.1911 29.7829 90.8964 30.302 89.6016 30.2371C87.4663 30.2371 85.3944 29.2638 85.3944 25.5681C85.3944 22.6496 87.0121 21.0274 89.3436 21.0274V20.9625ZM87.5946 24.7245H90.9613L90.7666 23.7512C90.5086 23.1687 89.926 22.8443 89.2787 22.8443C88.6313 22.8443 88.0488 23.1687 87.7892 23.7512L87.5946 24.7245ZM96.2686 21.9358C96.8526 21.2869 97.6932 21.0274 98.5352 21.0274C98.7269 21.0183 98.92 21.0304 99.1102 21.0621C99.2988 21.0953 99.4859 21.1481 99.664 21.2205C99.842 21.293 100.013 21.385 100.171 21.4937C100.329 21.6038 100.474 21.7306 100.606 21.8709L98.923 23.5565C98.665 23.2321 98.2108 23.0389 97.758 23.0389H97.6283C96.7877 23.1687 96.2686 23.881 96.2686 24.7245V30.1722H94.0035V21.0923H96.2052V21.9358H96.2686ZM101.125 19.9258C101.132 19.5938 101.206 19.2663 101.341 18.963C101.475 18.6581 101.668 18.385 101.909 18.1556C102.149 17.9278 102.433 17.7482 102.742 17.629C103.052 17.5098 103.382 17.4524 103.713 17.4615H105.008V19.4066H104.037C103.585 19.4715 103.39 19.8609 103.39 20.2502V21.222H105.072V22.974H103.39V30.1073H101.125V19.9258ZM115.035 20.9972C115.29 21.0379 115.541 21.1058 115.781 21.2009C116.021 21.296 116.248 21.4167 116.463 21.5631C116.676 21.7079 116.872 21.877 117.048 22.0656C117.89 22.974 118.083 23.9459 118.083 25.5681C118.083 27.1888 117.89 28.2256 117.048 29.0691C116.336 29.8478 115.301 30.2371 114.264 30.1722C114.009 30.1753 113.753 30.1526 113.5 30.1058C113.25 30.0606 113.003 29.9896 112.764 29.8946C112.527 29.801 112.298 29.6833 112.083 29.5445C111.868 29.4056 111.665 29.2472 111.481 29.0691C110.639 28.2256 110.446 27.1888 110.446 25.5681C110.446 24.0108 110.639 22.9092 111.481 22.0656C112.194 21.2869 113.229 20.9625 114.264 20.9625C114.522 20.9459 114.78 20.9579 115.035 20.9972ZM115.883 25.5681C115.883 24.6597 115.818 23.8161 115.366 23.3619C114.783 22.8443 113.876 22.8443 113.294 23.3619C112.841 23.8161 112.776 24.6597 112.776 25.5681C112.776 26.4751 112.841 27.3186 113.294 27.7728C113.876 28.2904 114.783 28.2904 115.366 27.7728C115.818 27.3186 115.883 26.5399 115.883 25.5681ZM128.765 21.0923H131.224L128.44 30.1722H126.499L124.622 24.465L122.745 30.1722H120.868L118.083 21.0923H120.478L121.968 26.6697L123.78 21.0274H125.398L127.275 26.6048L128.765 21.0274V21.0923ZM108.569 27.6431C108.697 28.0309 109.022 28.2256 109.409 28.1607H110.252V30.1073H108.632C108.309 30.0907 107.992 30.0093 107.701 29.8704C107.408 29.7316 107.147 29.5354 106.93 29.294C106.713 29.053 106.547 28.7714 106.44 28.4655C106.331 28.1607 106.286 27.8362 106.302 27.5133V17.5264H108.569V27.6431ZM44.6137 21.2869L43.4487 22.39H42.2188V27.3835C42.2188 28.2256 42.5417 28.6798 43.3838 28.6798H44.0312V29.7829H43.1242C41.6363 29.7829 40.924 28.7447 40.924 27.4484V18.4333H42.2188V21.2869H44.6137Z" fill="#3F3F3F"/>
<path d="M27.3305 31.4036V25.5681H29.92V33.9977H10.5V25.5681H13.0895V31.4036H27.3305Z" fill="#3F3F3F"/>
<path d="M25.3883 26.8644L25.9059 24.9192L15.4844 22.7794L15.0317 24.9192L25.3883 26.8644ZM16.4547 19.8609L26.1655 24.4001L27.0709 22.4549L17.3617 17.9157L16.4547 19.8609ZM19.174 15.0621L27.3305 21.9358L28.6901 20.3151L20.4688 13.4413L19.1092 15.0621H19.174ZM24.418 10.0037L22.669 11.3L29.078 19.9258L30.8255 18.628L24.418 10.0037ZM15.0317 29.4585H25.3883V27.5133H15.0317V29.4585Z" fill="#3F3F3F"/>
</svg>
