<svg viewBox="0 0 101 16" fill="none" xmlns="http://www.w3.org/2000/svg">
<path d="M14.6193 5.1229C14.3064 5.47895 13.9895 5.83901 13.701 6.19506C14.9118 3.67067 15.1515 1.47834 14.1601 0.52219C12.5633 -1.02605 8.08561 0.974259 4.35963 5.1229C3.60794 5.97903 2.90906 6.86317 2.27927 7.81531L23.6762 6.83916C25.1511 4.07474 25.5412 1.55035 24.4523 0.52219C22.8229 -1.02605 18.3696 1.00226 14.6193 5.1229ZM1.98265 8.19937C-0.000200803 11.3439 -0.581241 14.3003 0.629598 15.4645C2.25082 17.0127 6.67973 15.1084 10.4057 10.9838C10.7186 10.6277 11.0355 10.2677 11.324 9.91163C10.1375 12.368 9.92218 14.5123 10.9136 15.4645C12.5348 17.0127 16.9637 15.1084 20.6897 10.9838C21.2464 10.3637 21.7787 9.7196 22.2622 9.0555L1.98265 8.19937Z" fill="#3F3F3F"/>
<path d="M38.215 2.81055H26.838V4.71884H31.0231V14.8724H34.2899V4.69484H38.2109V2.81055H38.215ZM44.4845 2.45449H44.4601C40.9495 2.45449 38.1174 5.26693 38.1418 8.69946C38.1662 12.132 40.9983 14.9444 44.4845 14.9204C47.9707 14.8964 50.8272 12.108 50.8028 8.67546C50.8028 5.24293 47.9707 2.45449 44.4845 2.45449ZM44.4357 13.2962C42.6926 13.2962 41.2908 11.2719 41.2908 8.79147C41.2908 6.31109 42.5748 4.28678 44.4601 4.28678C46.1789 4.31078 47.5807 6.31109 47.5807 8.79147C47.5807 11.2719 46.1789 13.2962 44.4357 13.2962ZM80.4277 2.43049H80.4033C76.8683 2.43049 74.0119 5.26693 74.0363 8.72346C74.0363 12.204 76.9171 15.0164 80.4277 14.9924C83.9383 14.9684 86.8191 12.156 86.7948 8.69946C86.7907 5.24292 83.9383 2.45449 80.4277 2.43049ZM80.4033 13.2722C78.6602 13.2722 77.2584 11.2479 77.2584 8.76747C77.2584 6.28709 78.5424 4.26277 80.4277 4.26277C82.1464 4.28678 83.5482 6.28709 83.5482 8.76747C83.5482 11.2479 82.1464 13.2722 80.4033 13.2722ZM57.8443 2.81055H52.3265V14.8684H55.8371V12.084H57.82C64.3089 12.06 63.992 2.81055 57.8443 2.81055ZM56.7554 10.3437H55.8371V4.47881H56.7554C60.3392 4.47881 60.266 10.3437 56.7554 10.3437Z" fill="#3F3F3F"/>
<path d="M71.0866 13.4402C68.9575 13.4402 67.2144 11.3679 67.2144 8.81547C67.2144 6.26308 68.9575 4.19076 71.0866 4.19076C71.9805 4.21476 72.8054 4.57082 73.4596 5.16691C73.4596 5.16691 74.2844 3.54666 74.26 3.54666C73.1711 2.73453 71.7652 2.5225 70.2903 2.5225C66.7553 2.5225 63.8988 5.33493 63.8988 8.81547C63.8988 12.296 66.7553 15.1084 70.2903 15.1084C71.4523 15.1084 72.5169 15.1564 73.4596 14.6324V12.392C73.1426 13.0121 71.9562 13.4402 71.0866 13.4402ZM97.8307 5.1469C97.0059 3.12259 95.7991 2.76254 93.7147 2.78654H88.4162V14.8684H91.6831V4.55081H93.353C94.1291 4.55081 94.2957 5.0989 94.5882 6.09905L97.2496 14.8684H101L97.8307 5.1469Z" fill="#3F3F3F"/>
</svg>
