<svg width="18" height="14" viewBox="0 0 18 14" fill="none" xmlns="http://www.w3.org/2000/svg">
<path d="M9.75 9.04375C9.75 5.188 12.669 1.1545 17.25 0.25L17.988 1.8445C16.3268 2.47075 14.8658 4.651 14.703 6.154C16.5712 6.448 18 8.06425 18 10.0157C18 12.4022 16.062 13.75 14.1007 13.75C11.8395 13.75 9.75 12.0213 9.75 9.04375ZM0 9.04375C0 5.188 2.919 1.1545 7.5 0.25L8.238 1.8445C6.57675 2.47075 5.11575 4.651 4.953 6.154C6.82125 6.448 8.25 8.06425 8.25 10.0157C8.25 12.4022 6.312 13.75 4.35075 13.75C2.0895 13.75 0 12.0213 0 9.04375Z" fill="black"/>
</svg>
