<svg viewBox="0 0 126 15" fill="none" xmlns="http://www.w3.org/2000/svg">
<path d="M21.0433 10.3921V3.84957H23.9854V9.4862C23.9854 10.8447 24.6436 11.5417 25.7669 11.5417C26.8884 11.5417 27.6052 10.8456 27.6052 9.4862V3.84957H30.5465V13.9555H27.6052V12.5223C26.9275 13.3723 26.0568 14.144 24.5662 14.144C22.3401 14.144 21.0433 12.7108 21.0433 10.3921ZM31.9597 3.84957H34.9018V5.28273C35.5786 4.43457 36.4493 3.66109 37.9408 3.66109C40.1661 3.66109 41.4628 5.09425 41.4628 7.4138V13.9546H38.5207V8.31886C38.5207 6.96216 37.8634 6.26336 36.7402 6.26336C35.6177 6.26336 34.9018 6.96216 34.9018 8.31886V13.9555H31.9597V3.84957ZM42.2028 8.92165V8.88342C42.2028 5.50944 44.4672 3.66109 46.9245 3.66109C48.4925 3.66109 49.4602 4.36078 50.1566 5.16982V0.192871H53.0987V13.9555H50.1566V12.5028C49.4406 13.447 48.4534 14.144 46.9245 14.144C44.5063 14.144 42.2028 12.2956 42.2028 8.92165ZM50.1957 8.92165V8.88342C50.1957 7.20754 49.0528 6.09355 47.6787 6.09355C46.3055 6.09355 45.144 7.1862 45.144 8.88342V8.92165C45.144 10.6011 46.3046 11.7124 47.6787 11.7124C49.0537 11.7124 50.1957 10.6011 50.1957 8.92165ZM53.8404 8.95988V8.92165C53.8404 6.03665 55.95 3.66109 58.9686 3.66109C62.4337 3.66109 64.0203 6.28203 64.0203 9.14658C64.0203 9.37329 64.0017 9.63645 63.9812 9.90317H56.7629C57.0529 11.203 57.9823 11.8813 59.2986 11.8813C60.2849 11.8813 61.0018 11.5799 61.8147 10.8456L63.4983 12.2956C62.5306 13.4656 61.1369 14.1813 59.2603 14.1813C56.1439 14.1813 53.8404 12.0511 53.8404 8.95988ZM61.1565 8.1126C60.9822 6.8288 60.2075 5.96197 58.9686 5.96197C57.7502 5.96197 56.9559 6.81013 56.7247 8.1126H61.1565ZM64.7399 3.84957H67.682V5.8864C68.2823 4.49147 69.2499 3.58641 70.9923 3.66109V6.65899H70.8366C68.8826 6.65899 67.682 7.80943 67.682 10.2241V13.9555H64.7399V3.84957ZM71.7224 0.192871H74.6636V7.5276L78.1082 3.84957H81.6311L77.6831 7.82899L81.7672 13.9555H78.3591L75.7096 9.80715L74.6636 10.8829V13.9555H71.7224V0.192871ZM82.5009 3.84957H85.443V13.9555H82.5009V3.84957ZM86.9239 3.84957H89.866V5.28273C90.5437 4.43457 91.4144 3.66109 92.905 3.66109C95.1311 3.66109 96.4261 5.09425 96.4261 7.4138V13.9546H93.4849V8.31886C93.4849 6.96216 92.8276 6.26336 91.7043 6.26336C90.5819 6.26336 89.866 6.96216 89.866 8.31886V13.9555H86.9239V3.84957ZM97.1687 8.93143V8.89408C97.1687 5.51922 99.4322 3.67087 101.891 3.67087C103.459 3.67087 104.427 4.36967 105.123 5.18049V0.201762H108.066V13.9644H105.123V12.5117C104.407 13.4558 103.42 14.1529 101.891 14.1529C99.4713 14.1538 97.1687 12.3063 97.1687 8.93143ZM105.161 8.93143V8.89408C105.161 7.21643 104.019 6.10333 102.646 6.10333C101.271 6.10333 100.11 7.19598 100.11 8.89408V8.93143C100.11 10.61 101.271 11.7222 102.646 11.7222C104.019 11.7213 105.161 10.6091 105.161 8.93143ZM108.825 8.96877V8.93143C108.825 6.04643 110.934 3.67087 113.953 3.67087C117.418 3.67087 119.006 6.29181 119.006 9.15813C119.006 9.38396 118.986 9.64801 118.967 9.91383H111.748C112.038 11.2127 112.968 11.892 114.284 11.892C115.271 11.892 115.986 11.5906 116.799 10.8553L118.485 12.3072C117.516 13.4772 116.123 14.1929 114.245 14.1929C111.128 14.192 108.825 12.06 108.825 8.96877ZM116.14 8.1206C115.968 6.83769 115.193 5.97086 113.953 5.97086C112.735 5.97086 111.941 6.81813 111.709 8.1206H116.14ZM119.748 3.85935H122.691V5.89618C123.291 4.50214 124.259 3.5953 126 3.67087V6.66877H125.845C123.891 6.66877 122.691 7.81921 122.691 10.233V13.9653H119.748V3.85935ZM17.3728 3.84957L15.6697 9.99829L13.6961 3.81223H11.1614L9.20648 9.97962L7.54066 3.84957H4.5621L5.47728 6.77101C5.34654 6.53275 4.96144 5.97086 4.0009 5.39031C3.5023 5.09084 2.93004 4.93628 2.34842 4.944C0.647017 4.944 0.145402 6.53808 0.0644679 7.49915C0.663915 7.1053 1.3772 6.78879 2.41245 6.78879C4.66349 6.78879 6.39691 8.00414 6.39691 10.3077V10.3379C6.39691 12.2236 5.08951 13.6096 3.22624 14.0195L7.92577 14.0328V14.0311H10.3876L12.4207 7.82899L14.4138 14.0311H17.0651L20.2954 3.84957H17.3728Z" fill="#3F3F3F"/>
<path d="M3.91953 10.4499V10.417C3.91953 9.4862 3.17511 8.80784 1.9442 8.80784C0.712399 8.80873 0 9.47197 0 10.4028V10.4322C0 11.3648 0.745306 12.0734 1.97533 12.0734C3.20624 12.0734 3.91953 11.3959 3.91953 10.4499ZM85.4203 1.61715C85.4203 2.4004 84.7692 3.03519 83.9644 3.03519C83.1595 3.03519 82.5093 2.4004 82.5093 1.61715C82.5093 0.834774 83.1595 0.199098 83.9644 0.199098C84.7692 0.199098 85.4203 0.833885 85.4203 1.61715Z" fill="#3F3F3F"/>
</svg>
